<svg xmlns="http://www.w3.org/2000/svg" xmlns:xlink="http://www.w3.org/1999/xlink" width="1366" height="768" viewBox="0 0 1366 768">
  <defs>
    <filter id="Rectangle_23587" x="744.32" y="29.579" width="92.964" height="108.073" filterUnits="userSpaceOnUse">
      <feOffset dy="3" input="SourceAlpha"/>
      <feGaussianBlur stdDeviation="3" result="blur"/>
      <feFlood flood-opacity="0.059"/>
      <feComposite operator="in" in2="blur"/>
      <feComposite in="SourceGraphic"/>
    </filter>
    <clipPath id="clip-Empty">
      <rect width="1366" height="768"/>
    </clipPath>
  </defs>
  <g id="Empty" clip-path="url(#clip-Empty)">
    <g id="Group_47621" data-name="Group 47621" transform="translate(-21 -68)">
      <g id="Group_47620" data-name="Group 47620" transform="translate(22 68)">
        <path id="Path_81999" data-name="Path 81999" d="M101.439,171.923h-.092a38.57,38.57,0,1,1,7.087-76.483,3.375,3.375,0,0,0,3.965-2.831A69.628,69.628,0,0,1,242.408,67.587a3.223,3.223,0,0,0,3.774,1.5A52.559,52.559,0,1,1,265.25,171.8a.059.059,0,0,0-.055.059h0a.06.06,0,0,1-.059.059Z" transform="translate(0 -15.923)" fill="#a2e2ff" fill-rule="evenodd" opacity="0.16"/>
        <path id="Path_82001" data-name="Path 82001" d="M153.04,90.5h85.549a2.5,2.5,0,0,1,2.325,3.419l-29.629,75a2.5,2.5,0,0,1-2.325,1.581H123.411a2.5,2.5,0,0,1-2.325-3.419l29.629-75A2.5,2.5,0,0,1,153.04,90.5Z" transform="translate(-0.069 -15.112)" fill="#4dc7ff" stroke="#4dc7ff" stroke-width="1"/>
        <path id="Path_82002" data-name="Path 82002" d="M155.942,94.5h76.644a2.5,2.5,0,0,1,2.324,3.42l-26.528,67a2.5,2.5,0,0,1-2.324,1.58H129.414a2.5,2.5,0,0,1-2.324-3.42l26.528-67A2.5,2.5,0,0,1,155.942,94.5Z" transform="translate(-0.071 -15.112)" fill="#f6faff" stroke="#4dc7ff" stroke-width="1"/>
        <path id="Path_82003" data-name="Path 82003" d="M124.851,104.5h80.814a2.5,2.5,0,0,1,2.34,3.381l-4.516,12a2.5,2.5,0,0,1-2.34,1.619H120.335a2.5,2.5,0,0,1-2.34-3.381l4.516-12A2.5,2.5,0,0,1,124.851,104.5Z" transform="translate(-0.087 -15.403)" fill="#c3ebff"/>
        <path id="Path_82004" data-name="Path 82004" d="M144.892,128.947A3,3,0,0,1,147.7,127h65.971a3,3,0,0,1,2.809,4.053l-3.373,9A3,3,0,0,1,210.3,142H144.328a3,3,0,0,1-2.809-4.053Z" transform="translate(-0.075 -15.28)" fill="#d4f0ff" opacity="0.8"/>
        <path id="Path_82005" data-name="Path 82005" d="M70.857,161.5H157a2.589,2.589,0,0,1,2.5,2.67v4.272a2.589,2.589,0,0,1-2.5,2.67H65.143a1.7,1.7,0,0,1-1.643-1.755A7.62,7.62,0,0,1,70.857,161.5Z" transform="translate(-0.13 -15.112)" fill="#4dc7ff"/>
        <rect id="Rectangle_23553" data-name="Rectangle 23553" width="90" height="9.612" rx="0.5" transform="translate(119.417 146.388)" fill="#4dc7ff"/>
        <rect id="Rectangle_23554" data-name="Rectangle 23554" width="10" height="1" rx="0.5" transform="translate(146.404 145.388)" fill="#02a3ec"/>
        <rect id="Rectangle_23555" data-name="Rectangle 23555" width="10" height="1" rx="0.5" transform="translate(131.395 145.388)" fill="#02a3ec"/>
        <rect id="Rectangle_23556" data-name="Rectangle 23556" width="10" height="1" rx="0.5" transform="translate(116.386 145.388)" fill="#02a3ec"/>
        <rect id="Rectangle_23557" data-name="Rectangle 23557" width="10" height="1" rx="0.5" transform="translate(101.377 145.388)" fill="#02a3ec"/>
        <path id="Path_82009" data-name="Path 82009" d="M12.36,119.079l-.26.427Zm82.622,15.916a.5.5,0,1,1,.01-1Zm-1.969-1.038a.5.5,0,0,1-.029,1Zm-1.981.924a.5.5,0,1,1,.049-1Zm-1.948-1.117a.5.5,0,1,1-.07,1Zm-2.031.838a.5.5,0,0,1,.092-1Zm-1.879-1.2a.5.5,0,1,1-.116.993Zm-2.08.739a.5.5,0,1,1,.141-.99Zm-1.8-1.292a.5.5,0,0,1-.167.986Zm-2.122.628a.5.5,0,1,1,.194-.981Zm-1.728-1.391a.5.5,0,0,1-.223.975Zm-2.153.5a.5.5,0,0,1,.253-.968Zm-1.642-1.5a.5.5,0,0,1-.285.959Zm-2.172.362a.5.5,0,0,1,.318-.948Zm-1.542-1.612a.5.5,0,0,1-.354.936Zm-2.192.2a.5.5,0,0,1,.39-.921Zm-1.4-1.726a.5.5,0,1,1-.429.9Zm-2.218,0a.5.5,0,1,1,.469-.883Zm-1.22-1.832a.5.5,0,1,1-.51.86Zm-2.215-.211a.5.5,0,1,1,.554-.832Zm-1.044-1.958a.5.5,0,1,1-.6.8Zm-2.167-.441a.5.5,0,1,1,.643-.765Zm-.8-2.056a.5.5,0,0,1-.688.726Zm-2.1-.705a.5.5,0,1,1,.734-.679Zm-.537-2.154a.5.5,0,0,1-.78.626Zm-1.983-.992a.5.5,0,0,1,.824-.566Zm-.208-2.205a.5.5,0,0,1-.867.5Zm-1.8-1.3a.5.5,0,0,1,.907-.42Zm.181-2.2a.5.5,0,0,1-.944.331Zm-1.513-1.615a.5.5,0,0,1,.974-.227Zm.655-2.122a.5.5,0,0,1-1,.1Zm-1.046-1.952a.5.5,0,0,1,1,.058Zm1.292-1.79a.5.5,0,1,1-.963-.268Zm-.1-2.208a.5.5,0,0,1,.832.555Zm2.081-.624a.5.5,0,1,1-.479-.877Zm1.669-1.381a.5.5,0,0,1-.025,1Zm1.719,1.392a.5.5,0,0,1,.375-.927Zm2.228.105a.5.5,0,0,1-.591.807Zm.693,2.075a.5.5,0,0,1,.807-.591Zm1.748,1.317a.5.5,0,1,1-.96.281Zm-.734,2.075a.5.5,0,1,1,1,.022Zm.7,2.076a.5.5,0,0,1-.968-.251Zm-1.606,1.523a.5.5,0,1,1,.91.415Zm-.059,2.2a.5.5,0,0,1-.847-.532ZM56,114.361a.5.5,0,1,1,.784.621Zm-.541,2.14a.5.5,0,0,1-.723-.691Zm-2.113.648a.5.5,0,0,1,.665.747Zm-.885,2.024a.5.5,0,0,1-.607-.795Zm-2.184.325a.5.5,0,1,1,.55.835Zm-1.156,1.88a.5.5,0,0,1-.494-.869Zm-2.207.033a.5.5,0,0,1,.438.9Zm-1.385,1.718a.5.5,0,0,1-.381-.925Zm-2.194-.241a.5.5,0,1,1,.324.946Zm-1.584,1.536a.5.5,0,1,1-.267-.963Zm-2.149-.5a.5.5,0,0,1,.209.978Zm-1.758,1.337a.5.5,0,1,1-.15-.988Zm-2.078-.753a.5.5,0,0,1,.092,1Zm-1.9,1.121a.5.5,0,1,1-.034-1Zm-1.968-.989a.5.5,0,1,1-.024,1Zm-2.015.895a.5.5,0,0,1,.08-1Zm-1.85-1.207a.5.5,0,0,1-.136.991Zm-2.113.664a.5.5,0,0,1,.19-.982Zm-1.7-1.4a.5.5,0,0,1-.242.971Zm-2.16.44a.5.5,0,0,1,.292-.957ZM20.5,122.457a.5.5,0,0,1-.339.941Zm-2.194.221a.5.5,0,1,1,.384-.923Zm-1.389-1.709a.5.5,0,1,1-.426.9Zm-2.218.012a.5.5,0,0,1,.466-.885Zm-1.229-1.823a.5.5,0,0,1-.5.865Zm-2.244-.2a.5.5,0,1,1,.549-.836Zm-1.044-1.965a.5.5,0,1,1-.608.794Zm-2.169-.5a.5.5,0,1,1,.668-.745Zm-.736-2.113a.5.5,0,1,1-.728.686Zm-2.062-.86A.5.5,0,1,1,6,112.9Zm-.352-2.2a.5.5,0,1,1-.838.545ZM2.992,110.1a.5.5,0,0,1,.884-.466Zm.054-2.23a.5.5,0,1,1-.923.385Zm-1.625-1.529a.5.5,0,1,1,.953-.3Zm.438-2.188a.5.5,0,0,1-.975.224ZM.506,102.379a.5.5,0,1,1,.989-.148Zm.767-2.1a.5.5,0,1,1-1,.079ZM.184,98.334a.5.5,0,1,1,1-.014Zm1.032-1.981a.5.5,0,1,1-1-.045ZM.365,94.288a.5.5,0,1,1,1,.1ZM1.6,92.431a.5.5,0,0,1-.989-.148ZM.958,90.294a.5.5,0,0,1,.981.192Zm1.4-1.739a.5.5,0,1,1-.973-.232Zm-.468-2.183a.5.5,0,1,1,.963.269ZM3.42,84.743a.5.5,0,1,1-.953-.3Zm-.313-2.211a.5.5,0,1,1,.943.333Zm1.632-1.525a.5.5,0,0,1-.932-.362Zm-.178-2.226a.5.5,0,1,1,.921.388Zm1.716-1.427a.5.5,0,0,1-.911-.413ZM6.222,75.12a.5.5,0,0,1,.9.437Zm1.79-1.337a.5.5,0,0,1-.888-.46Zm.059-2.234a.5.5,0,1,1,.876.482ZM9.927,70.3a.5.5,0,0,1-.864-.5Zm.17-2.228a.5.5,0,1,1,.851.525Zm1.915-1.151a.5.5,0,1,1-.837-.547ZM12.3,64.71a.5.5,0,1,1,.822.569Zm1.973-1.042a.5.5,0,1,1-.805-.593Zm.411-2.188a.5.5,0,0,1,.785.62Zm2.049-.915a.5.5,0,0,1-.758-.652ZM96,135q-.513,0-1.019-.005l.01-1q.5,0,1.009.005Zm-3.017-.043q-.989-.028-1.952-.076l.049-1q.953.047,1.932.074Zm-3.97-.2q-.995-.069-1.961-.159l.092-1q.955.088,1.939.158Zm-3.955-.368q-1-.117-1.964-.254l.141-.99q.954.135,1.94.251Zm-3.936-.56q-1-.168-1.955-.358l.194-.981q.946.186,1.928.353Zm-3.906-.774q-.984-.225-1.93-.472l.253-.968q.931.244,1.9.465Zm-3.858-1.01q-.965-.288-1.886-.6l.318-.948q.905.3,1.853.586Zm-3.783-1.273q-.943-.357-1.838-.737l.39-.921q.877.372,1.8.722Zm-3.671-1.56q-.922-.437-1.789-.9l.469-.883q.847.45,1.749.879Zm-3.52-1.871q-.883-.523-1.7-1.071l.554-.832q.8.531,1.661,1.043Zm-3.347-2.228q-.82-.61-1.569-1.242l.643-.765q.728.61,1.525,1.206Zm-3.061-2.572q-.746-.709-1.413-1.431l.734-.679q.645.7,1.367,1.384Zm-2.73-2.959c-.431-.537-.832-1.078-1.2-1.618l.824-.566q.535.78,1.159,1.558Zm-2.278-3.325q-.518-.9-.929-1.794l.907-.42q.394.851.889,1.716ZM49.278,112.6a18.646,18.646,0,0,1-.569-1.946l.974-.227a17.691,17.691,0,0,0,.539,1.842Zm-.909-3.968a13.034,13.034,0,0,1-.051-2.052l1,.058a12,12,0,0,0,.048,1.894Zm.278-4.11a6.721,6.721,0,0,1,.865-1.94l.832.555a5.735,5.735,0,0,0-.733,1.653Zm2.466-3.441a4.218,4.218,0,0,1,2.149-.5l-.025,1a3.216,3.216,0,0,0-1.645.381Zm4.243-.039a8.811,8.811,0,0,1,.961.463l-.486.874a7.646,7.646,0,0,0-.85-.41Zm.961.463a8.537,8.537,0,0,1,.892.569l-.591.807a7.281,7.281,0,0,0-.787-.5Zm2.393,2.053a6.139,6.139,0,0,1,.941,1.908l-.96.281a5.132,5.132,0,0,0-.788-1.6Zm1.206,4a8.951,8.951,0,0,1-.3,2.054l-.968-.251a7.963,7.963,0,0,0,.266-1.825Zm-.994,3.992a15.284,15.284,0,0,1-.969,1.785l-.847-.532a14.292,14.292,0,0,0,.906-1.668Zm-2.138,3.432c-.406.512-.848,1.02-1.325,1.519l-.723-.691c.456-.477.878-.962,1.264-1.449ZM54.01,117.9q-.735.654-1.549,1.277l-.607-.795q.784-.6,1.492-1.229Zm-3.183,2.437q-.822.542-1.707,1.045l-.494-.869q.855-.486,1.65-1.011Zm-3.475,1.977q-.887.432-1.823.819l-.381-.925q.907-.374,1.767-.793Zm-3.692,1.524q-.934.319-1.909.59l-.267-.963q.945-.262,1.851-.573ZM39.81,124.9q-.967.207-1.966.359l-.15-.988q.97-.147,1.908-.349Zm-3.952.6q-.984.091-1.995.125l-.034-1q.981-.033,1.937-.122Zm-3.987.135q-.986-.022-1.991-.1l.08-1q.977.079,1.935.1Zm-3.977-.32q-.981-.135-1.977-.327l.19-.982q.969.188,1.923.318Zm-3.916-.756q-.953-.238-1.918-.531l.292-.957q.94.287,1.868.517ZM20.161,123.4q-.923-.333-1.855-.72l.384-.923q.909.378,1.81.7Zm-3.669-1.524q-.893-.42-1.792-.893l.466-.885q.879.463,1.752.873Zm-3.523-1.851q-.434-.252-.869-.517l.52-.854q.426.259.851.506Zm-.869-.517q-.446-.271-.873-.552l.549-.836q.413.272.844.534Zm-2.524-1.723q-.821-.628-1.561-1.292l.668-.745q.711.637,1.5,1.243ZM6.55,115.064q-.711-.755-1.334-1.546L6,112.9q.6.756,1.277,1.479Zm-2.524-3.2Q3.464,111,2.992,110.1l.884-.466q.451.855.987,1.68Zm-1.9-3.6q-.394-.943-.7-1.914l.953-.3q.3.928.672,1.832ZM.885,104.378q-.227-.99-.378-2l.989-.148q.146.97.364,1.923Zm-.608-4.017Q.2,99.353.184,98.334l1-.014q.013.988.089,1.962ZM.218,96.307Q.263,95.3.365,94.288l1,.1q-.1.986-.143,1.965Zm.4-4.024q.149-.994.343-1.989l.981.192q-.19.973-.336,1.945Zm.771-3.96q.233-.978.505-1.951l.963.269q-.266.955-.5,1.915Zm1.08-3.882q.3-.96.64-1.909l.943.333q-.33.934-.63,1.878Zm1.339-3.8q.365-.94.754-1.864l.921.388q-.384.911-.744,1.837Zm1.56-3.7q.418-.921.856-1.82l.9.437q-.431.887-.845,1.8Zm1.758-3.617q.467-.9.947-1.774l.876.482q-.474.861-.936,1.752ZM9.063,69.8q.514-.882,1.034-1.724l.851.525q-.513.831-1.021,1.7Zm2.111-3.422q.563-.861,1.121-1.669l.822.569q-.55.8-1.106,1.646Zm2.289-3.3q.617-.838,1.216-1.6l.785.62q-.587.742-1.2,1.568Zm2.507-3.163q.336-.39.66-.748l.741.672q-.315.347-.643.728Z" transform="translate(-0.184 -15.481)" fill="#02a3ec"/>
        <path id="Path_82010" data-name="Path 82010" d="M265.469,103.708l1.1,2.96a1.5,1.5,0,0,0,.671.787l1.971,1.109a.5.5,0,0,1,0,.872l-1.913,1.076a1.5,1.5,0,0,0-.721.951l-1.086,4.444a.5.5,0,0,1-.972,0l-1.086-4.444a1.5,1.5,0,0,0-.721-.951l-1.913-1.076a.5.5,0,0,1,0-.872l1.971-1.109a1.5,1.5,0,0,0,.671-.787l1.1-2.96A.5.5,0,0,1,265.469,103.708Z" transform="translate(0 -15.424)" fill="#a3dff9"/>
        <path id="Path_82011" data-name="Path 82011" d="M143.469,61.708l1.1,2.96a1.506,1.506,0,0,0,.671.787l1.971,1.109a.5.5,0,0,1,0,.871l-1.913,1.077a1.5,1.5,0,0,0-.721.951l-1.086,4.444a.5.5,0,0,1-.972,0l-1.086-4.444a1.5,1.5,0,0,0-.721-.951l-1.913-1.077a.5.5,0,0,1,0-.871l1.971-1.109a1.506,1.506,0,0,0,.671-.787l1.1-2.96A.5.5,0,0,1,143.469,61.708Z" transform="translate(-0.101 -15.664)" fill="#02a3ec"/>
        <circle id="Ellipse_4429" data-name="Ellipse 4429" cx="3" cy="3" r="3" transform="translate(243.461 127.388)" fill="#02a3ec"/>
        <circle id="Ellipse_4430" data-name="Ellipse 4430" cx="3" cy="3" r="3" transform="translate(233.455 12.577)" fill="#a3dff9"/>
        <g id="Group_47619" data-name="Group 47619" transform="translate(26.909 0) rotate(21)">
          <path id="Path_82026" data-name="Path 82026" d="M.007,18C-.2,18,4.053.7,4.053.7A1,1,0,0,1,5.714.294l7,7A1,1,0,0,1,12.607,8.8l-12,9a.993.993,0,0,1-.6.2Z" transform="translate(9.993 21.999)" fill="#0073a8"/>
          <path id="Path_82027" data-name="Path 82027" d="M32.992,42a1,1,0,0,1-.6-.2L.4,17.8a1,1,0,0,1,.229-1.729l40-16A1,1,0,0,1,41.98,1.2l-8.007,40a1,1,0,0,1-.98.8Z" fill="#a2e2ff"/>
          <path id="Path_82028" data-name="Path 82028" d="M1,30.012a1,1,0,0,1-1-1v-15a1,1,0,0,1,.4-.8L21.106.2A1,1,0,0,1,22.4,1.725L5.2,18.162,1.948,29.327A1,1,0,0,1,1,30.012Z" transform="translate(9 9.988)" fill="#02a3ec"/>
        </g>
      </g>
    </g>
    <g id="Group_47623" data-name="Group 47623" transform="translate(-396 -96)">
      <rect id="Rectangle_23558" data-name="Rectangle 23558" width="239" height="88" transform="translate(711 96)" fill="none"/>
      <g id="Group_47622" data-name="Group 47622" transform="translate(713 97)">
        <g id="Rectangle_22256" data-name="Rectangle 22256" transform="translate(0 33.701)" fill="#f0fbff" stroke="#02a3ec" stroke-width="1" stroke-dasharray="3">
          <rect width="236" height="52" rx="4" stroke="none"/>
          <rect x="0.5" y="0.5" width="235" height="51" rx="3.5" fill="none"/>
        </g>
        <rect id="Rectangle_22226" data-name="Rectangle 22226" width="177.085" height="44.167" rx="4" transform="matrix(0.996, 0.087, -0.087, 0.996, 32.07, 0)" fill="#a2e2ff"/>
        <circle id="Ellipse_1864" data-name="Ellipse 1864" cx="10" cy="10" r="10" transform="matrix(0.996, 0.087, -0.087, 0.996, 42.521, 16.49)" fill="#d3effc"/>
        <path id="Path_82029" data-name="Path 82029" d="M5.9,0,114.111.161a5.972,5.972,0,0,1,5.911,6.008,5.931,5.931,0,0,1-5.894,5.991L5.915,12A5.972,5.972,0,0,1,0,5.995,5.931,5.931,0,0,1,5.9,0Z" transform="matrix(0.996, 0.087, -0.087, 0.996, 74.037, 23.268)" fill="#d3effc"/>
        <path id="Path_35745" data-name="Path 35745" d="M0,0H24V24H0Z" transform="translate(106.084 30.93)" fill="none"/>
        <line id="Line_21" data-name="Line 21" x2="3" transform="translate(109.116 42.93)" fill="none" stroke="#02a3ec" stroke-linecap="round" stroke-linejoin="round" stroke-width="1.5"/>
        <line id="Line_22" data-name="Line 22" y2="3" transform="translate(118.084 33.93)" fill="none" stroke="#02a3ec" stroke-linecap="round" stroke-linejoin="round" stroke-width="1.5"/>
        <line id="Line_23" data-name="Line 23" x1="2.2" y1="2.2" transform="translate(111.707 36.53)" fill="none" stroke="#02a3ec" stroke-linecap="round" stroke-linejoin="round" stroke-width="1.5"/>
        <line id="Line_24" data-name="Line 24" y1="2.2" x2="2.2" transform="translate(122.261 36.53)" fill="none" stroke="#02a3ec" stroke-linecap="round" stroke-linejoin="round" stroke-width="1.5"/>
        <line id="Line_25" data-name="Line 25" x1="2.2" y2="2.2" transform="translate(111.707 47.13)" fill="none" stroke="#02a3ec" stroke-linecap="round" stroke-linejoin="round" stroke-width="1.5"/>
        <path id="Path_35746" data-name="Path 35746" d="M12,12l9,3-4,2-2,4-3-9" transform="translate(106.064 30.93)" fill="#02a3ec" stroke="#02a3ec" stroke-linecap="round" stroke-linejoin="round" stroke-width="1.5"/>
      </g>
    </g>
    <g id="Group_47674" data-name="Group 47674" transform="translate(115.614 -971.123)">
      <path id="Path_82099" data-name="Path 82099" d="M60.59,1.416C52.752-.3,6.777-4.284,9.906,18.75s-28.371,40.8,7.282,55.724S37.08,62,65.4,60.377s18.463-26.362,8.435-31.812S68.428,3.132,60.59,1.416Z" transform="matrix(0.899, 0.438, -0.438, 0.899, 482.895, 972.34)" fill="#f0fbff"/>
      <path id="Path_35797" data-name="Path 35797" d="M180.825,429.4c0,.338.011.676.034,1.011.025.4.068.8.126,1.193a15.024,15.024,0,0,0,1.106,3.857l.083.184.041.092c.014.031.029.061.043.09s.037.079.057.118.047.1.072.146c0,.006.006.013.01.019.021.042.04.082.062.124a.265.265,0,0,0,.014.026c.023.047.048.1.073.143s.054.1.081.152c.066.124.135.246.206.369.021.036.041.072.063.109s.039.067.059.1l.041.068c.022.038.044.074.068.111l.154.246h0c.023.038.048.075.073.111h0c.073.111.149.223.225.332h0s0,0,0,0c.061.089.124.175.186.262h0c.041.054.081.11.123.164s.068.09.1.135c.007.01.015.018.022.028h0l.029.036q.219.284.452.555l.025.029c.008.01.018.019.026.031l.04.046c.012.015.026.031.04.046a15.025,15.025,0,0,0,2.735,2.433c.134.093.27.184.407.271l.1.065.03.021.057.035.055.033c.073.046.148.09.222.135l.057.033.057.032s0,0,0,0h0q.139.081.281.159c.051.028.1.057.156.083.119.065.239.128.359.188.043.021.087.042.13.064l.108.051.03.015.09.042.1.046c.037.017.073.033.11.049.138.063.277.122.417.179a14.52,14.52,0,0,0,1.528.534l.073.021q.333.094.67.171.59.138,1.19.225h0l.143.021h.014s0,0,0,0l.159.021h.011l.15.018.161.017.124.013h.011l.112.01h.006l.1.008c.385.031.771.044,1.163.044.423,0,.844-.017,1.259-.053h0l.266-.025.069-.007h.014l.022,0h.011l.092-.01.1-.013.1-.014.023,0,.074-.011.036,0,.073-.011h0a14.478,14.478,0,0,0,2.234-.508l.116-.036h0l.034-.011c.1-.033.206-.068.308-.1.141-.047.28-.1.419-.152l.112-.045c.076-.029.15-.06.225-.09.127-.051.254-.106.379-.161s.233-.106.349-.161c0,0,.007,0,.009,0l.077-.038h0a14.763,14.763,0,0,0,1.833-1.056q.281-.19.554-.392c.146-.11.29-.221.433-.335a15,15,0,0,0,1.957-1.886h0c.043-.047.083-.1.124-.145l.018-.02c.026-.032.051-.063.077-.093h0c.034-.04.069-.082.1-.124l.022-.026h0c.028-.033.054-.067.081-.1l.04-.05h0c.081-.1.16-.206.238-.312l.064-.086c.1-.135.2-.273.29-.41h0c.036-.051.07-.1.106-.156l.1-.159c.034-.056.07-.11.1-.166l0-.008c.034-.053.069-.108.1-.163l.079-.131c.017-.029.034-.058.051-.089.006-.009.012-.019.018-.029l.116-.2c.046-.079.09-.16.134-.241.017-.033.035-.067.052-.1.007-.011.012-.022.018-.033.021-.039.041-.079.061-.12l.062-.12c.019-.039.04-.079.059-.12l.044-.092,0-.007c.007-.015.014-.029.019-.043l0-.007c.015-.031.029-.063.044-.093s.037-.082.057-.122.026-.057.039-.086.037-.081.054-.122.037-.083.055-.127c.005-.01.01-.021.014-.032s.017-.039.025-.058c.022-.051.044-.1.065-.156s.048-.118.07-.177.043-.11.063-.166l.008-.019a15.166,15.166,0,0,0,.728-2.633h0a15.31,15.31,0,0,0,.2-1.55c0-.029,0-.057.006-.085.025-.352.036-.705.036-1.06,0-.157,0-.313-.007-.469a14.99,14.99,0,0,0-3.28-8.93c-.044-.056-.088-.111-.134-.167s-.092-.11-.138-.164a14.8,14.8,0,0,0-23.865,1.729c-.068.108-.135.218-.2.328s-.13.223-.193.335A15.022,15.022,0,0,0,180.825,429.4Z" transform="translate(290.171 618.031)" fill="#a3dff9"/>
      <path id="Path_35799" data-name="Path 35799" d="M245.965,462.4l-.033-.005a.878.878,0,0,0,.128-.1Z" transform="translate(234.044 576.813)" fill="#fff"/>
      <path id="Path_35801" data-name="Path 35801" d="M238.125,583.435c.119.065.239.128.359.188.043.021.087.042.13.064l.108.051.03.015.09.042.1.046c.037.017.073.033.11.049.138.063.277.122.416.179a14.518,14.518,0,0,0,1.528.534l.073.021q.333.094.67.171.59.138,1.19.225h0l.143.021h.014s0,0,0,0l.159.021.011,0,.15.018.161.017.124.012h.011l.112.01h.006l.1.008c.385.031.771.044,1.163.044.423,0,.844-.017,1.259-.053h0l.266-.025.069-.007h.014l.022,0h.011l.092-.01.1-.012.1-.014.023,0,.074-.011.036,0,.073-.011h0a14.478,14.478,0,0,0,2.234-.508l.116-.036a5.611,5.611,0,0,0-1.072-2.295,5.55,5.55,0,0,0-1.967-1.581,1.326,1.326,0,0,0,.376-.676,1.3,1.3,0,0,0-.177-.976,1.237,1.237,0,0,0-.781-.54l-2.044-.431a1.263,1.263,0,0,0-.949.192,1.283,1.283,0,0,0-.54.81,1.357,1.357,0,0,0-.028.309A14.105,14.105,0,0,0,238.125,583.435Z" transform="translate(240.774 477.239)" fill="#f0fbff"/>
      <path id="Path_35802" data-name="Path 35802" d="M255.267,519.11a4.295,4.295,0,1,0-4.258-4.295A4.277,4.277,0,0,0,255.267,519.11Z" transform="translate(229.667 535.293)" fill="#ffb8b8"/>
      <path id="Path_35803" data-name="Path 35803" d="M249.207,508.24a5.664,5.664,0,0,1-1.227-1.365,5.193,5.193,0,0,1-.79-4.117,1.577,1.577,0,0,1,.367-.757.666.666,0,0,1,.773-.154,1.42,1.42,0,0,1,.057-1.118,2.478,2.478,0,0,1,.728-.875,4.073,4.073,0,0,1,4.177-.5c.266.124-.171-.836.108-.743a1.126,1.126,0,0,0,.857-.015c.262-.133,1.13.657,1.029.379a1.294,1.294,0,0,1,.5.408,1.311,1.311,0,0,1-.2,1.777,7.112,7.112,0,0,1-.735.454,2.139,2.139,0,0,0-.645,2.746,2.779,2.779,0,0,0-.823-.361.939.939,0,0,0-.842.2,1.077,1.077,0,0,0-.258.809c.01.291.078.578.086.87.023.855.477,2.481-.181,2.936C251.669,509.178,249.827,508.667,249.207,508.24Z" transform="translate(233.073 545.572)" fill="#2f2e41"/>
      <path id="Path_35811" data-name="Path 35811" d="M291.363,309.1a.677.677,0,0,1-.261-.053.662.662,0,0,1-.3-.248.671.671,0,0,1-.111-.377v-.68a.541.541,0,0,0-.156-.38.532.532,0,0,0-.377-.158.669.669,0,0,1-.474-.2.681.681,0,0,1-.2-.479v-9.313a.681.681,0,0,1,.2-.478.668.668,0,0,1,.474-.2h30.594a.668.668,0,0,1,.474.2.68.68,0,0,1,.2.478v9.313a.68.68,0,0,1-.2.479.669.669,0,0,1-.474.2H293.736a.527.527,0,0,0-.377.157l-1.526,1.539a.659.659,0,0,1-.47.2Z" transform="translate(196.499 719.514)" fill="#02a3ec"/>
      <path id="Path_35812" data-name="Path 35812" d="M290.5,308.377a.808.808,0,0,1-.314-.064.8.8,0,0,1-.365-.3.808.808,0,0,1-.134-.455v-.68a.4.4,0,0,0-.116-.282.394.394,0,0,0-.279-.117.806.806,0,0,1-.572-.239.821.821,0,0,1-.237-.577v-9.313a.821.821,0,0,1,.237-.577.806.806,0,0,1,.572-.239h30.594a.806.806,0,0,1,.572.239.821.821,0,0,1,.237.577v9.313a.821.821,0,0,1-.237.577.807.807,0,0,1-.572.239H292.874a.392.392,0,0,0-.28.117l-1.526,1.539a.8.8,0,0,1-.568.241Zm-1.209-12.563a.531.531,0,0,0-.377.158.54.54,0,0,0-.156.38v9.313a.541.541,0,0,0,.156.38.532.532,0,0,0,.377.158.669.669,0,0,1,.474.2.68.68,0,0,1,.2.478v.68a.542.542,0,0,0,.09.3.535.535,0,0,0,.239.2.531.531,0,0,0,.581-.117L292.4,306.4a.664.664,0,0,1,.475-.2h27.012a.531.531,0,0,0,.377-.158.541.541,0,0,0,.156-.38v-9.313a.541.541,0,0,0-.156-.38.531.531,0,0,0-.377-.158Z" transform="translate(197.361 720.375)" fill="none"/>
      <path id="Path_35813" data-name="Path 35813" d="M339.811,322.388H315a.356.356,0,0,1-.253-.106.362.362,0,0,1,0-.51.356.356,0,0,1,.253-.105h24.809a.356.356,0,0,1,.253.105.362.362,0,0,1,0,.51A.356.356,0,0,1,339.811,322.388Z" transform="translate(174.807 697.878)" fill="#f0fbff"/>
      <path id="Path_35814" data-name="Path 35814" d="M339.766,333.394H315a.356.356,0,0,1-.253-.106.362.362,0,0,1,0-.51.356.356,0,0,1,.253-.106h24.763a.356.356,0,0,1,.253.106.363.363,0,0,1,0,.51.356.356,0,0,1-.253.106Z" transform="translate(174.807 688.404)" fill="#bce8fc"/>
      <path id="Path_35815" data-name="Path 35815" d="M339.741,344.4H315a.356.356,0,0,1-.253-.106.362.362,0,0,1,0-.51.356.356,0,0,1,.253-.106h24.739a.356.356,0,0,1,.253.106.362.362,0,0,1,0,.51.356.356,0,0,1-.253.106Z" transform="translate(174.807 678.927)" fill="#f0fbff"/>
      <path id="Path_35816" data-name="Path 35816" d="M594.633,193.4c0,.338-.011.676-.034,1.011-.025.4-.067.8-.125,1.193a15.017,15.017,0,0,1-1.106,3.857l-.083.184-.042.092c-.014.031-.029.061-.043.09s-.037.079-.056.118-.047.1-.072.146c0,.006-.005.013-.01.019-.021.042-.04.082-.062.124a.231.231,0,0,1-.014.026c-.023.047-.048.1-.073.143s-.054.1-.081.152c-.066.124-.135.246-.206.369-.021.036-.042.072-.064.109s-.039.067-.059.1l-.042.068c-.022.038-.044.074-.068.111l-.154.246h0c-.023.038-.048.075-.073.111h0c-.073.111-.149.223-.225.332h0c-.061.089-.124.175-.186.262h0l-.123.164c-.033.045-.068.09-.1.135-.007.01-.015.018-.022.028h0l-.029.036q-.219.284-.452.555l-.025.029c-.008.01-.018.019-.026.031l-.04.046c-.012.015-.026.031-.04.046a15.013,15.013,0,0,1-2.735,2.433c-.134.093-.27.184-.407.271l-.1.065-.03.021-.056.035-.055.033c-.073.046-.148.09-.222.135l-.057.033-.057.032s0,0,0,0h0q-.138.081-.281.159c-.051.028-.1.057-.156.083-.119.065-.239.128-.359.188-.043.021-.087.042-.13.064l-.108.051-.03.015-.09.042-.1.046c-.037.017-.073.033-.11.049-.138.063-.277.122-.417.179a14.486,14.486,0,0,1-1.528.534l-.073.021q-.333.094-.67.171-.589.138-1.19.225h0l-.143.021h-.014s0,0,0,0l-.159.021H581.6l-.15.018-.161.017-.124.013h-.011l-.112.01h-.006l-.1.008c-.385.031-.771.045-1.163.045-.423,0-.844-.017-1.259-.053h0l-.266-.025-.069-.007h-.014l-.022,0h-.011l-.092-.01-.1-.013-.1-.014-.023,0-.074-.011-.036,0-.073-.011h0a14.473,14.473,0,0,1-2.234-.508l-.116-.036h0l-.034-.011c-.1-.033-.206-.068-.308-.1-.141-.047-.28-.1-.419-.152l-.112-.045c-.076-.029-.15-.06-.225-.09-.127-.051-.254-.106-.379-.161s-.233-.106-.349-.161c0,0-.007,0-.01,0l-.077-.038h0a14.735,14.735,0,0,1-1.833-1.056q-.282-.19-.555-.392c-.146-.11-.29-.221-.433-.335a14.987,14.987,0,0,1-1.957-1.886h0c-.043-.047-.083-.1-.124-.145l-.018-.019-.077-.093h0c-.034-.04-.069-.082-.1-.124l-.022-.026h0c-.028-.033-.054-.067-.081-.1l-.04-.05h0c-.081-.1-.16-.206-.239-.312l-.064-.086c-.1-.135-.2-.273-.29-.41h0c-.036-.051-.07-.1-.106-.156l-.1-.158c-.034-.056-.07-.11-.1-.166l0-.008c-.034-.053-.069-.109-.1-.163l-.079-.131c-.017-.029-.034-.058-.051-.089a.343.343,0,0,1-.018-.029l-.116-.2c-.045-.079-.09-.16-.134-.24-.017-.033-.034-.067-.052-.1-.007-.011-.012-.022-.018-.033-.021-.039-.041-.079-.061-.12l-.062-.12c-.019-.039-.04-.079-.059-.12s-.029-.061-.044-.092l0-.007c-.007-.015-.014-.029-.019-.043l0-.007c-.015-.031-.029-.062-.044-.093s-.037-.082-.057-.122-.026-.057-.039-.086-.037-.081-.054-.122-.037-.083-.055-.127c-.005-.01-.01-.021-.014-.032s-.017-.039-.025-.058c-.022-.051-.044-.1-.065-.156s-.048-.118-.07-.177-.043-.11-.063-.166l-.008-.019a15.173,15.173,0,0,1-.728-2.633v0a15.388,15.388,0,0,1-.2-1.55c0-.029,0-.057-.005-.085-.025-.352-.036-.705-.036-1.06,0-.157,0-.313.007-.469A14.991,14.991,0,0,1,568.2,184c.044-.056.088-.111.134-.167s.092-.11.138-.164a14.8,14.8,0,0,1,23.866,1.729c.068.109.135.219.2.328s.13.223.193.335a15.019,15.019,0,0,1,1.9,7.337Z" transform="translate(-40.945 821.205)" fill="#a3dff9"/>
      <path id="Path_35818" data-name="Path 35818" d="M714.444,226.4l.033-.005a.883.883,0,0,1-.128-.1Z" transform="translate(-169.769 779.986)" fill="#fff"/>
      <path id="Path_35820" data-name="Path 35820" d="M632.6,276.33a4.6,4.6,0,1,0-4.463-4.6A4.534,4.534,0,0,0,632.6,276.33Z" transform="translate(-95.452 744.831)" fill="#ffb6b6"/>
      <path id="Path_35821" data-name="Path 35821" d="M651.455,347.435c-.119.065-.239.128-.359.188-.043.021-.087.042-.13.064l-.108.051-.03.015-.09.042-.1.046c-.037.017-.073.034-.11.049-.138.063-.277.122-.417.179a14.521,14.521,0,0,1-1.528.534l-.073.021q-.333.094-.67.171-.59.138-1.19.225h0l-.143.021h-.014s0,0,0,0l-.159.021h-.011c-.05.007-.1.012-.15.018l-.161.017-.124.012h-.011l-.112.01h-.005l-.1.008c-.385.031-.771.044-1.163.044-.424,0-.844-.017-1.259-.053h0l-.266-.025-.069-.007h-.014l-.022,0h-.011l-.093-.01-.1-.012-.1-.014-.023,0-.075-.011-.036,0-.073-.011h0a14.5,14.5,0,0,1-2.234-.508l-.116-.036a5.611,5.611,0,0,1,1.072-2.295,5.547,5.547,0,0,1,1.967-1.581,1.325,1.325,0,0,1-.377-.676,1.3,1.3,0,0,1,.177-.976,1.236,1.236,0,0,1,.781-.54l2.044-.431a1.263,1.263,0,0,1,.949.192,1.283,1.283,0,0,1,.54.81,1.357,1.357,0,0,1,.028.309A14.106,14.106,0,0,1,651.455,347.435Z" transform="translate(-105.67 680.412)" fill="#f0fbff"/>
      <path id="Path_35822" data-name="Path 35822" d="M638.53,256.086A21.8,21.8,0,0,1,636.8,253c-.606-1.013-1.662-1.92-2.777-1.684a2.5,2.5,0,0,0-1.663,1.609,7.98,7.98,0,0,0-.41,2.427,4.143,4.143,0,0,0-2.611-3.874,3.827,3.827,0,0,0-4.3,1.423,2.311,2.311,0,0,0-3.089-.065,2.63,2.63,0,0,0-.416,3.225,2.331,2.331,0,0,0,2.994.805l.354.328a1.551,1.551,0,0,0,.836,1.8c.526.214,1.27.179,1.467.736a1.173,1.173,0,0,1-.393,1.1,1.864,1.864,0,0,0-.632,1.022c-.05.625.59,1.062,1.172,1.194a3.641,3.641,0,0,0,3.768-1.586q.023-.036.051-.072a5.5,5.5,0,0,0,1.09-4.178c-.046-.289,0-.5.2-.572a6.53,6.53,0,0,1,3.965.885c.723.56,1.3,1.3,2,1.9a3.1,3.1,0,0,0,2.468.894,2.74,2.74,0,0,0,1.716-1.274,7.706,7.706,0,0,0,.847-2.079A3.965,3.965,0,0,1,638.53,256.086Z" transform="translate(-89.435 758.479)" fill="#2f2e41"/>
      <path id="Path_35823" data-name="Path 35823" d="M82.825,126.4c0,.338.011.676.034,1.011.025.4.068.8.125,1.193a15.013,15.013,0,0,0,1.106,3.857l.083.184.041.092c.014.031.029.061.043.09s.037.079.057.118.047.1.072.146c0,.006.006.013.01.019.021.042.04.082.062.124a.229.229,0,0,0,.014.026c.023.047.048.1.073.143s.054.1.081.152c.066.124.135.246.205.369.021.036.041.072.063.108s.039.067.059.1L85,134.2c.022.038.044.074.068.111l.154.246h0c.023.038.048.075.073.111h0c.073.111.149.223.225.332h0s0,0,0,0c.061.089.124.175.186.262h0c.041.054.081.11.123.164s.068.09.1.135c.007.01.015.018.022.028h0l.029.036q.219.284.452.555l.025.029c.008.01.018.019.026.031l.04.046c.012.015.026.031.04.046a15.023,15.023,0,0,0,2.735,2.433c.134.093.27.184.407.271l.1.065.03.021.057.035.055.033c.073.046.148.09.222.135l.057.033.057.032s0,0,0,0h0q.139.081.281.159c.051.028.1.057.156.083.119.065.239.128.359.188.043.021.087.042.13.064l.108.051.03.015.09.042.1.046c.037.017.073.033.11.049.138.063.277.122.417.179a14.511,14.511,0,0,0,1.528.534l.073.021q.333.094.67.171.59.138,1.19.225h0l.143.021h.014s0,0,0,0l.159.021h.011l.15.018.161.017.124.013h.011l.112.01h.006l.1.008c.385.031.771.045,1.163.045.423,0,.844-.017,1.259-.053h0l.266-.025.069-.007H99.3l.022,0h.011l.092-.01.1-.013.1-.014.023,0,.074-.011.036,0,.073-.011h0a14.469,14.469,0,0,0,2.234-.508l.116-.036h0l.034-.011c.1-.033.205-.068.308-.1.141-.047.28-.1.419-.152l.112-.045c.076-.029.15-.06.225-.09.127-.051.254-.106.379-.161s.233-.106.349-.161c0,0,.007,0,.01,0l.077-.038h0a14.747,14.747,0,0,0,1.833-1.056q.281-.19.554-.392c.146-.11.29-.221.433-.335a14.992,14.992,0,0,0,1.957-1.886h0c.043-.047.083-.1.124-.145l.018-.019c.026-.032.051-.063.077-.093h0c.034-.04.069-.082.1-.124l.022-.026h0c.028-.033.054-.067.081-.1l.04-.05h0c.081-.1.16-.206.239-.312l.063-.086c.1-.135.2-.273.29-.41h0c.036-.051.07-.1.106-.156l.1-.159c.034-.056.07-.11.1-.166l0-.008c.034-.053.069-.109.1-.163l.079-.131c.017-.029.034-.058.051-.089a.34.34,0,0,0,.018-.029l.116-.2c.046-.079.09-.16.134-.241.017-.033.034-.067.052-.1.007-.011.012-.022.018-.033.021-.039.041-.079.061-.12l.062-.12c.019-.039.04-.079.059-.12l.044-.092,0-.007c.007-.015.014-.029.019-.043l0-.007c.015-.031.029-.063.044-.093s.037-.082.057-.122.026-.057.039-.086.037-.081.054-.122.037-.083.055-.127c.005-.01.01-.021.014-.032s.017-.039.025-.058c.022-.051.044-.1.065-.156s.048-.118.07-.177.043-.11.063-.166l.008-.019a15.166,15.166,0,0,0,.728-2.633h0a15.361,15.361,0,0,0,.2-1.55c0-.029,0-.057.006-.085.025-.352.036-.705.036-1.06,0-.157,0-.313-.007-.469a14.992,14.992,0,0,0-3.28-8.93c-.044-.056-.088-.111-.134-.167s-.092-.11-.138-.164A14.8,14.8,0,0,0,85.119,118.4c-.068.108-.135.218-.2.328s-.13.223-.193.335a15.021,15.021,0,0,0-1.9,7.337Z" transform="translate(374.655 878.885)" fill="#a3dff9"/>
      <path id="Path_35825" data-name="Path 35825" d="M147.965,159.4l-.033-.005a.881.881,0,0,0,.128-.1Z" transform="translate(318.528 837.667)" fill="#fff"/>
      <path id="Path_35827" data-name="Path 35827" d="M140.125,280.436c.119.065.239.128.359.188.043.021.087.042.13.064l.108.051.03.015.09.042.1.046c.037.017.073.033.11.049.138.063.277.123.416.18a14.534,14.534,0,0,0,1.528.534l.073.021q.333.094.67.171.59.138,1.19.225h0l.143.021h.014s0,0,0,0l.159.021h.011l.15.018.161.017.124.013h.011l.112.01h.005l.1.008c.385.031.771.044,1.163.044.423,0,.844-.017,1.259-.053h0l.266-.025.069-.007.014,0,.022,0h.011l.092-.01.1-.013.1-.014.023,0,.074-.011.036,0,.073-.011h0a14.484,14.484,0,0,0,2.234-.508l.116-.036a5.611,5.611,0,0,0-1.072-2.295,5.549,5.549,0,0,0-1.967-1.581,1.325,1.325,0,0,0,.377-.676,1.3,1.3,0,0,0-.177-.976,1.237,1.237,0,0,0-.781-.54l-2.044-.431a1.263,1.263,0,0,0-.949.192,1.283,1.283,0,0,0-.541.81,1.356,1.356,0,0,0-.028.309A14.107,14.107,0,0,0,140.125,280.436Z" transform="translate(325.258 738.093)" fill="#f0fbff"/>
      <path id="Path_35828" data-name="Path 35828" d="M167.656,203.011a5.018,5.018,0,1,0-4.975-5.018A5,5,0,0,0,167.656,203.011Z" transform="translate(305.813 808.669)" fill="#ffb6b6"/>
      <path id="Path_35829" data-name="Path 35829" d="M157.643,194.765a3.993,3.993,0,0,1-3.591-.967,6.812,6.812,0,0,1-1.93-3.32,4.061,4.061,0,0,1,.027-2.8,1.836,1.836,0,0,1,2.335-1.007,1.6,1.6,0,0,1,.346-2.139,3.967,3.967,0,0,1,2.23-.753,8.03,8.03,0,0,1,3.431.244,3.758,3.758,0,0,1,2.43,2.31,1.733,1.733,0,0,0,2.079-.474,1.6,1.6,0,0,1-.145,1.012,1.586,1.586,0,0,1-.725.715l1.676-.548a1.243,1.243,0,0,1-.863,1.574,2.805,2.805,0,0,1-1.956-.3,7.547,7.547,0,0,0-1.873-.756,1.647,1.647,0,0,0-1.756.71,5.256,5.256,0,0,0-.263,1.032c-.094.344-.331.7-.683.728-.223.018-.441-.1-.663-.077a.712.712,0,0,0-.361.191.723.723,0,0,0-.2.36,2.135,2.135,0,0,0,0,.832l.426,3.282Z" transform="translate(315.119 816.647)" fill="#2f2e41"/>
      <path id="Path_82011-2" data-name="Path 82011" d="M143.469,61.708l1.1,2.96a1.506,1.506,0,0,0,.671.787l1.971,1.109a.5.5,0,0,1,0,.871l-1.913,1.077a1.5,1.5,0,0,0-.721.951l-1.086,4.444a.5.5,0,0,1-.972,0l-1.086-4.444a1.5,1.5,0,0,0-.721-.951l-1.913-1.077a.5.5,0,0,1,0-.871l1.971-1.109a1.506,1.506,0,0,0,.671-.787l1.1-2.96A.5.5,0,0,1,143.469,61.708Z" transform="translate(299.847 934.785)" fill="#a3dff9"/>
      <circle id="Ellipse_4430-2" data-name="Ellipse 4430" cx="3" cy="3" r="3" transform="translate(523.968 971.123)" fill="#a3dff9"/>
      <path id="Path_82010-2" data-name="Path 82010" d="M265.469,103.708l1.1,2.96a1.5,1.5,0,0,0,.671.787l1.971,1.109a.5.5,0,0,1,0,.872l-1.913,1.076a1.5,1.5,0,0,0-.721.951l-1.086,4.444a.5.5,0,0,1-.972,0l-1.086-4.444a1.5,1.5,0,0,0-.721-.951l-1.913-1.076a.5.5,0,0,1,0-.872l1.971-1.109a1.5,1.5,0,0,0,.671-.787l1.1-2.96A.5.5,0,0,1,265.469,103.708Z" transform="translate(306.925 921.426)" fill="#a3dff9"/>
      <circle id="Ellipse_4429-2" data-name="Ellipse 4429" cx="3" cy="3" r="3" transform="translate(519.357 1052.803)" fill="#02a3ec"/>
    </g>
    <g id="Group_47682" data-name="Group 47682" transform="translate(693)">
      <path id="Path_82107" data-name="Path 82107" d="M153.5,75.5c0,41.417-34.246,75-76.5,75S.5,116.917.5,75.5,34.746.5,77,.5,153.5,34.083,153.5,75.5Z" transform="translate(-0.5 -0.5)" fill="#a2e2ff" opacity="0.16"/>
      <rect id="Rectangle_23590" data-name="Rectangle 23590" width="31" height="2" rx="1" transform="translate(75.499 68.01) rotate(9.887)" fill="#02a3ec"/>
      <rect id="Rectangle_23592" data-name="Rectangle 23592" width="62.259" height="80.744" rx="5.5" transform="translate(7.832 61.041) rotate(-30)" fill="#b2e2ff"/>
      <rect id="Rectangle_23593" data-name="Rectangle 23593" width="31" height="2" rx="1" transform="matrix(0.866, -0.5, 0.5, 0.866, 18.104, 65.524)" fill="#02a3ec"/>
      <rect id="Rectangle_23594" data-name="Rectangle 23594" width="31" height="2" rx="1" transform="matrix(0.866, -0.5, 0.5, 0.866, 21.417, 71.391)" fill="#02a3ec"/>
      <rect id="Rectangle_23595" data-name="Rectangle 23595" width="21.518" height="2" rx="1" transform="matrix(0.866, -0.5, 0.5, 0.866, 30.45, 84.9)" fill="#02a3ec"/>
      <rect id="Rectangle_23597" data-name="Rectangle 23597" width="33.804" height="2" rx="1" transform="matrix(0.866, -0.5, 0.5, 0.866, 33.51, 90.889)" fill="#02a3ec"/>
      <rect id="Rectangle_23598" data-name="Rectangle 23598" width="13.391" height="2" rx="1" transform="matrix(0.866, -0.5, 0.5, 0.866, 38.55, 96.857)" fill="#02a3ec"/>
      <rect id="Rectangle_23599" data-name="Rectangle 23599" width="21.518" height="2" rx="1" transform="matrix(0.866, -0.5, 0.5, 0.866, 42.572, 104.085)" fill="#02a3ec"/>
      <g transform="matrix(1, 0, 0, 1, -693, 0)" filter="url(#Rectangle_23587)">
        <rect id="Rectangle_23587-2" data-name="Rectangle 23587" width="62.259" height="80.744" rx="5.5" transform="translate(766.91 35.58) rotate(9.69)" fill="#c3ebff"/>
      </g>
      <rect id="Rectangle_23588" data-name="Rectangle 23588" width="31" height="2" rx="1" transform="translate(78.026 46.077) rotate(9.887)" fill="#02a3ec"/>
      <rect id="Rectangle_23589" data-name="Rectangle 23589" width="31" height="2" rx="1" transform="translate(78.026 52.059) rotate(9.887)" fill="#02a3ec"/>
      <rect id="Rectangle_23596" data-name="Rectangle 23596" width="31" height="2" rx="1" transform="translate(75.499 63.58) rotate(9.887)" fill="#02a3ec"/>
      <g id="Group_47681" data-name="Group 47681" transform="translate(72.338 79.34)">
        <circle id="Ellipse_4440" data-name="Ellipse 4440" cx="21" cy="21" r="21" fill="#02a3ec"/>
        <path id="Path_82108" data-name="Path 82108" d="M92.562,96.138l4.27-4.073,12.786,13.406a2.95,2.95,0,0,1-4.27,4.073Z" transform="translate(-60.302 -61.482)" fill="#02a3ec"/>
        <circle id="Ellipse_4439" data-name="Ellipse 4439" cx="15" cy="15" r="15" transform="translate(6 6)" fill="#d1f1ff"/>
      </g>
    </g>
    <g id="Group_47679" data-name="Group 47679" transform="translate(-9.219 -249)">
      <path id="Path_81999-2" data-name="Path 81999" d="M109.709,201.213H109.6a46.625,46.625,0,1,1,8.612-92.456,4.1,4.1,0,0,0,4.818-3.423A84.727,84.727,0,0,1,281.006,75.088a3.925,3.925,0,0,0,4.586,1.815,63.583,63.583,0,1,1,23.17,124.167.072.072,0,0,0-.067.072h0a.073.073,0,0,1-.072.072Z" transform="translate(792.219 218.333)" fill="#a2e2ff" fill-rule="evenodd" opacity="0.16"/>
      <path id="Path_82011-3" data-name="Path 82011" d="M143.469,61.708l1.1,2.96a1.506,1.506,0,0,0,.671.787l1.971,1.109a.5.5,0,0,1,0,.871l-1.913,1.077a1.5,1.5,0,0,0-.721.951l-1.086,4.444a.5.5,0,0,1-.972,0l-1.086-4.444a1.5,1.5,0,0,0-.721-.951l-1.913-1.077a.5.5,0,0,1,0-.871l1.971-1.109a1.506,1.506,0,0,0,.671-.787l1.1-2.96A.5.5,0,0,1,143.469,61.708Z" transform="translate(773.389 226.51)" fill="#02a3ec"/>
      <circle id="Ellipse_4429-3" data-name="Ellipse 4429" cx="3" cy="3" r="3" transform="translate(1119.525 372.663)" fill="#02a3ec"/>
      <circle id="Ellipse_4430-3" data-name="Ellipse 4430" cx="3" cy="3" r="3" transform="translate(906.078 366.679)" fill="#a3dff9"/>
      <g id="Group_47678" data-name="Group 47678" transform="translate(948.537 295)">
        <path id="Path_82100" data-name="Path 82100" d="M7.84,63.55l88.914-10.5a6.5,6.5,0,0,1,7.257,6.45v67.113a6.5,6.5,0,0,1-6.495,6.495H7.2A6.5,6.5,0,0,1,.7,126.447L2.11,69.839A6.5,6.5,0,0,1,7.84,63.55Z" transform="translate(-0.701 -7.103)" fill="#3c9ecb"/>
        <rect id="Rectangle_23579" data-name="Rectangle 23579" width="4.998" height="9.526" rx="1" transform="matrix(0.811, -0.584, 0.584, 0.811, 34.032, 4.653)" fill="#4dc7ff"/>
        <rect id="Rectangle_23580" data-name="Rectangle 23580" width="4.998" height="9.526" rx="1" transform="translate(52.38 0) rotate(0.975)" fill="#4dc7ff"/>
        <rect id="Rectangle_23581" data-name="Rectangle 23581" width="4.998" height="9.526" rx="1" transform="matrix(0.87, 0.492, -0.492, 0.87, 69.897, 0.866)" fill="#4dc7ff"/>
        <rect id="Rectangle_23582" data-name="Rectangle 23582" width="58.639" height="72.742" rx="7.5" transform="translate(3.375 45.563) rotate(-12.812)" fill="#c5edff"/>
        <path id="Path_82102" data-name="Path 82102" d="M162.624,65c.145,5.917-2.078,19.4-12.124,25.979" transform="translate(-20.778 -8.711)" fill="none" stroke="#4dc7ff" stroke-linecap="round" stroke-width="1"/>
        <path id="Path_82103" data-name="Path 82103" d="M168.325,81.814c-1.108,5.815-6.125,18.522-17.333,22.835" transform="translate(-20.844 -10.965)" fill="none" stroke="#4dc7ff" stroke-linecap="round" stroke-width="1"/>
        <path id="Path_82104" data-name="Path 82104" d="M140.683,108.456c-1.732-.433-5.542-.693-6.928,1.732-1.732,3.031-1.732,6.495-2.165,7.794a7.34,7.34,0,0,1-2.6,3.464c-.866.433,10.392,1.3,13.423-4.33,2.331-4.33.866-6.928-1.3-8.66" transform="translate(-17.889 -14.497)" fill="#a2e2ff"/>
        <path id="Path_82105" data-name="Path 82105" d="M143.433,105c.145.866.26,2.338-.433,3.031" transform="translate(-19.772 -14.072)" fill="#a2e2ff" stroke="#a2e2ff" stroke-linecap="round" stroke-width="1"/>
        <path id="Path_82106" data-name="Path 82106" d="M143.062,110c-.145,1.154-1.559,4.33-6.062,7.794" transform="translate(-18.968 -14.742)" fill="none" stroke="#fff" stroke-linecap="round" stroke-width="1"/>
        <rect id="Rectangle_23583" data-name="Rectangle 23583" width="5.122" height="33.533" rx="2.561" transform="translate(45.49 49.244) rotate(77.616)" fill="#fff"/>
        <rect id="Rectangle_23584" data-name="Rectangle 23584" width="58.639" height="72.742" rx="7.5" transform="translate(43.52 21.28) rotate(9.168)" fill="#c5edff"/>
        <rect id="Rectangle_23585" data-name="Rectangle 23585" width="5.425" height="43.466" rx="2.713" transform="translate(88 46.169) rotate(98.539)" fill="#fff"/>
        <rect id="Rectangle_23586" data-name="Rectangle 23586" width="4.559" height="33.533" rx="2.279" transform="translate(76.641 54.804) rotate(98.539)" fill="#fff"/>
        <path id="Path_82101" data-name="Path 82101" d="M22.217,71.5H105.47a6.5,6.5,0,0,1,6.438,7.353l-6.813,51.093a6.5,6.5,0,0,1-6.438,5.637H9.274a6.5,6.5,0,0,1-6.3-8.09L15.921,76.4A6.5,6.5,0,0,1,22.217,71.5Z" transform="translate(-0.979 -9.582)" fill="#4dc7ff"/>
      </g>
      <path id="Path_82010-3" data-name="Path 82010" d="M265.469,103.708l1.1,2.96a1.5,1.5,0,0,0,.671.787l1.971,1.109a.5.5,0,0,1,0,.872l-1.913,1.076a1.5,1.5,0,0,0-.721.951l-1.086,4.444a.5.5,0,0,1-.972,0l-1.086-4.444a1.5,1.5,0,0,0-.721-.951l-1.913-1.076a.5.5,0,0,1,0-.872l1.971-1.109a1.5,1.5,0,0,0,.671-.787l1.1-2.96A.5.5,0,0,1,265.469,103.708Z" transform="translate(817.18 167.165)" fill="#a3dff9"/>
    </g>
    <g id="Group_47621-2" data-name="Group 47621" transform="translate(-10586 -7112.059)">
      <path id="Path_77471" data-name="Path 77471" d="M55.654,21.946a59.238,59.238,0,0,1-14.147,8.623c-3.651,1.7-12.322,2.926-20.84,3.234S8.144,37.633,5.76,41.655C3.021,46.275,3.782,57.207,7.585,69.833S20.363,83.692,24.318,84.615,62.8,84.769,69.5,80.3s23.73-16.938,27.229-27.1S94.292,35.034,81.058,22.716,63.564,15.633,55.654,21.946Z" transform="translate(11735.146 7102.508)" fill="#a2e2ff" opacity="0.19"/>
      <path id="Path_77472" data-name="Path 77472" d="M54.647,120.422a2.464,2.464,0,0,1,2.037-2.827l51.73-8.4,5.34,32.892a3.7,3.7,0,0,1-3.056,4.24l-46.867,7.609a3.7,3.7,0,0,1-4.24-3.056Z" transform="translate(11699.819 7037.491)" fill="#dadaff"/>
      <rect id="Rectangle_23162" data-name="Rectangle 23162" width="40.342" height="41.332" rx="2" transform="matrix(0.823, 0.567, -0.567, 0.823, 11776.646, 7122.595)" fill="#0073a8"/>
      <path id="Path_77474" data-name="Path 77474" d="M280.924,130l2.113,2.1a3.07,3.07,0,0,1,.017,4.342l-25.762,25.968L253,158.147Z" transform="translate(11561.77 7023.094)" fill="#c3ebff"/>
      <circle id="Ellipse_4438" data-name="Ellipse 4438" cx="1.078" cy="1.078" r="1.078" transform="translate(11753.09 7124.146)" fill="#4dc7ff" opacity="0.8"/>
      <circle id="Ellipse_4439-2" data-name="Ellipse 4439" cx="1.078" cy="1.078" r="1.078" transform="translate(11811.424 7122.914)" fill="#4dc7ff" opacity="0.8"/>
      <circle id="Ellipse_4440-2" data-name="Ellipse 4440" cx="1.54" cy="1.54" r="1.54" transform="translate(11819.337 7152.786)" fill="none" stroke="#4dc7ff" stroke-width="0.5"/>
      <circle id="Ellipse_4441" data-name="Ellipse 4441" cx="1.54" cy="1.54" r="1.54" transform="translate(11744.468 7171.879)" fill="none" stroke="#4dc7ff" stroke-width="0.5"/>
      <rect id="Rectangle_23163" data-name="Rectangle 23163" width="4.003" height="0.924" rx="0.462" transform="translate(11738 7153.402)" fill="#fbcb39"/>
      <rect id="Rectangle_23164" data-name="Rectangle 23164" width="4.003" height="0.924" rx="0.462" transform="translate(11739.54 7155.866) rotate(-90)" fill="#fbcb39"/>
      <rect id="Rectangle_23165" data-name="Rectangle 23165" width="4.003" height="0.924" rx="0.462" transform="matrix(0.761, 0.649, -0.649, 0.761, 11780.406, 7114.231)" fill="#fbcb39"/>
      <rect id="Rectangle_23166" data-name="Rectangle 23166" width="4.003" height="0.924" rx="0.462" transform="matrix(0.649, -0.761, 0.761, 0.649, 11779.979, 7117.105)" fill="#fbcb39"/>
      <rect id="Rectangle_23167" data-name="Rectangle 23167" width="4.003" height="0.924" rx="0.462" transform="matrix(0.761, 0.649, -0.649, 0.761, 11812.087, 7130.245)" fill="#fbcb39"/>
      <rect id="Rectangle_23168" data-name="Rectangle 23168" width="4.003" height="0.924" rx="0.462" transform="matrix(0.649, -0.761, 0.761, 0.649, 11811.661, 7133.119)" fill="#fbcb39"/>
      <rect id="Rectangle_23169" data-name="Rectangle 23169" width="4.003" height="0.924" rx="0.462" transform="matrix(0.761, 0.649, -0.649, 0.761, 11840.387, 7177.978)" fill="#fbcb39"/>
      <rect id="Rectangle_23170" data-name="Rectangle 23170" width="4.003" height="0.924" rx="0.462" transform="matrix(0.649, -0.761, 0.761, 0.649, 11839.96, 7180.852)" fill="#fbcb39"/>
      <ellipse id="Ellipse_4442" data-name="Ellipse 4442" cx="34.337" cy="2.002" rx="34.337" ry="2.002" transform="translate(11753.397 7198.056)" fill="#c3ebff"/>
      <rect id="Rectangle_23171" data-name="Rectangle 23171" width="45.728" height="52.716" rx="2" transform="matrix(0.987, -0.16, 0.16, 0.987, 11755.191, 7135.858)" fill="#fff"/>
      <rect id="Rectangle_23172" data-name="Rectangle 23172" width="15.247" height="1.232" rx="0.616" transform="translate(11762.945 7145.04) rotate(-9.493)" fill="#0073a8"/>
      <rect id="Rectangle_23173" data-name="Rectangle 23173" width="31.976" height="1.232" rx="0.616" transform="translate(11764.093 7149.758) rotate(-9.493)" fill="#0073a8"/>
      <rect id="Rectangle_23174" data-name="Rectangle 23174" width="32.059" height="1.232" rx="0.616" transform="translate(11765.003 7154.376) rotate(-9.493)" fill="#0073a8"/>
      <rect id="Rectangle_23175" data-name="Rectangle 23175" width="32.234" height="1.232" rx="0.616" transform="translate(11765.608 7159.304) rotate(-9.493)" fill="#0073a8"/>
      <path id="Path_77475" data-name="Path 77475" d="M102.629,165.353a.924.924,0,0,1,1.268-.214l27.9,19.2L82.68,192.5Z" transform="translate(11680.296 6998.889)" fill="#4dc7ff"/>
      <path id="Path_77476" data-name="Path 77476" d="M81.567,147.492a.924.924,0,0,1,.5,1.44L63.613,173.949a2.464,2.464,0,0,1-4.417-1.084l-5.405-32.985Z" transform="translate(11700.532 7016.116)" fill="#4dc7ff"/>
      <path id="Path_77477" data-name="Path 77477" d="M152.157,125.333a.924.924,0,0,1-.011-1.515l23.489-17.285L181,142.025a1.54,1.54,0,0,1-2.394,1.507Z" transform="translate(11632.309 7038.792)" fill="#4dc7ff"/>
      <path id="Path_77478" data-name="Path 77478" d="M220.853,230.83a.585.585,0,0,0-.053.789h0a.586.586,0,0,0,.693.17l13.641-5.986-4.506-4.3Z" transform="translate(11584.465 6959.771)" fill="#c3ebff"/>
      <path id="Path_77479" data-name="Path 77479" d="M256.7,121.384a4.773,4.773,0,0,0-6.75.027L225.3,146.253l-.388.391-.157.37-5.661,13.36a1.185,1.185,0,0,0,1.567,1.547l13.256-5.817.368-.162.387-.391,24.645-24.842a4.773,4.773,0,0,0-.027-6.75ZM234.016,154.9l24.645-24.842a3.849,3.849,0,0,0-.022-5.444l-2.6-2.575a3.85,3.85,0,0,0-5.444.022L225.955,146.9Zm-8.555-7.186,7.751,7.689-12.923,5.671a.261.261,0,0,1-.345-.341Z" transform="translate(11585.298 7030.014)" fill="#02a3ec" fill-rule="evenodd"/>
      <path id="Path_77480" data-name="Path 77480" d="M220.333,238.433a.711.711,0,0,0,.123.765h0a.712.712,0,0,0,.821.171l5.995-2.712L222.96,232.5Z" transform="translate(11584.802 6952.159)" fill="#02a3ec"/>
      <path id="Line_5341" data-name="Line 5341" d="M8.8,9.639.052.759.78.031l8.75,8.88Z" transform="translate(11831.766 7154.442)" fill="#02a3ec"/>
      <path id="Line_5341-2" data-name="Line 5341" d="M8.8,9.639.052.759.78.031l8.75,8.88Z" transform="translate(11833.237 7153.063)" fill="#02a3ec"/>
    </g>
    <g id="Group_47627" data-name="Group 47627" transform="translate(-557 -105)">
      <path id="Path_81999-3" data-name="Path 81999" d="M101.439,171.211h-.092a38.375,38.375,0,1,1,7.087-76.1A3.373,3.373,0,0,0,112.4,92.3,69.724,69.724,0,0,1,242.408,67.4a3.23,3.23,0,0,0,3.774,1.493A52.331,52.331,0,1,1,265.25,171.093a.059.059,0,0,0-.055.059h0a.06.06,0,0,1-.059.059Z" transform="translate(495 243.533)" fill="#a2e2ff" fill-rule="evenodd" opacity="0.16"/>
      <path id="Path_82010-4" data-name="Path 82010" d="M265.469,103.708l1.1,2.96a1.5,1.5,0,0,0,.671.787l1.971,1.109a.5.5,0,0,1,0,.872l-1.913,1.076a1.5,1.5,0,0,0-.721.951l-1.086,4.444a.5.5,0,0,1-.972,0l-1.086-4.444a1.5,1.5,0,0,0-.721-.951l-1.913-1.076a.5.5,0,0,1,0-.872l1.971-1.109a1.5,1.5,0,0,0,.671-.787l1.1-2.96A.5.5,0,0,1,265.469,103.708Z" transform="translate(529 221.562)" fill="#a3dff9"/>
      <path id="Path_82011-4" data-name="Path 82011" d="M143.469,61.708l1.1,2.96a1.506,1.506,0,0,0,.671.787l1.971,1.109a.5.5,0,0,1,0,.871l-1.913,1.077a1.5,1.5,0,0,0-.721.951l-1.086,4.444a.5.5,0,0,1-.972,0l-1.086-4.444a1.5,1.5,0,0,0-.721-.951l-1.913-1.077a.5.5,0,0,1,0-.871l1.971-1.109a1.506,1.506,0,0,0,.671-.787l1.1-2.96A.5.5,0,0,1,143.469,61.708Z" transform="translate(560.202 208.652)" fill="#02a3ec"/>
      <circle id="Ellipse_4429-4" data-name="Ellipse 4429" cx="3" cy="3" r="3" transform="translate(783 402.715)" fill="#02a3ec"/>
      <circle id="Ellipse_4430-4" data-name="Ellipse 4430" cx="3" cy="3" r="3" transform="translate(594.455 390.033)" fill="#a3dff9"/>
      <circle id="Ellipse_4432" data-name="Ellipse 4432" cx="3" cy="3" r="3" transform="translate(754.957 264.033)" fill="#a3dff9"/>
      <path id="Path_82038" data-name="Path 82038" d="M171.487,136.83a54.521,54.521,0,0,0,2.7-13l-8.965-4.342c.011-1.453-.042-2.916-.172-4.389-.036-.509-.105-1.008-.163-1.513l8.434-5.33a54.653,54.653,0,0,0-4.125-12.61l-9.962.724A45.25,45.25,0,0,0,156,91.415l4.637-8.818a55.84,55.84,0,0,0-9.891-8.851l-8.259,5.6a46.879,46.879,0,0,0-5.274-2.677l-.391-9.953a54.985,54.985,0,0,0-13-2.715l-4.344,8.974c-1.453-.013-2.907.045-4.387.17-.512.045-1.015.109-1.515.17l-5.323-8.443A55.242,55.242,0,0,0,95.636,69l.726,9.962a44.674,44.674,0,0,0-4.95,3.24l-8.825-4.639a55.337,55.337,0,0,0-8.847,9.9l5.6,8.255a45.243,45.243,0,0,0-2.684,5.269l-9.958.391a54.694,54.694,0,0,0-2.7,13l8.97,4.342c-.009,1.455.038,2.916.165,4.389.045.509.109,1.006.177,1.513l-8.443,5.325A55.311,55.311,0,0,0,69,142.559l9.958-.722a46.327,46.327,0,0,0,3.238,4.952l-4.639,8.816a55.264,55.264,0,0,0,9.9,8.854l8.255-5.6a44.965,44.965,0,0,0,5.274,2.684l.393,9.955a54.876,54.876,0,0,0,12.99,2.708l4.355-8.97c1.448.009,2.914-.04,4.387-.168.505-.04,1.008-.112,1.5-.174l5.325,8.449a55.434,55.434,0,0,0,12.621-4.127l-.72-9.964a48.2,48.2,0,0,0,4.95-3.24l8.82,4.637a55.655,55.655,0,0,0,8.845-9.9l-5.593-8.257a48.892,48.892,0,0,0,2.679-5.276ZM119.1,151.614A32.514,32.514,0,1,1,151.61,119.1,32.549,32.549,0,0,1,119.1,151.614Z" transform="translate(528.33 214.296)" fill="#4dc7ff"/>
      <path id="Path_82039" data-name="Path 82039" d="M175.46,205.662a30.19,30.19,0,1,0,30.192-30.192A30.223,30.223,0,0,0,175.46,205.662Zm52.91-1.984a22.811,22.811,0,1,1-24.7-20.735A22.809,22.809,0,0,1,228.37,203.678Z" transform="translate(441.778 127.736)" fill="#a2e2ff"/>
      <path id="Path_82040" data-name="Path 82040" d="M165.06,197.594a32.513,32.513,0,1,0,32.514-32.514A32.549,32.549,0,0,0,165.06,197.594Zm62.7,0A30.19,30.19,0,1,1,197.574,167.4,30.222,30.222,0,0,1,227.762,197.594Z" transform="translate(449.854 135.804)" fill="#0073a8"/>
      <path id="Path_82044" data-name="Path 82044" d="M164.772,91.48a.237.237,0,0,0,.469-.071ZM147.13,55.717l-.169.166h0Zm-35.463-18.4-.039.234Zm-39.5,5.961-.106-.212ZM43.708,71.324l-.211-.109h0Zm-6.538,39.412-.235.035Zm17.877,35.728.169-.167h0ZM130.014,158.9l-2.733-.192,1.2,2.462Zm-2.954,1.127q-1.236.545-2.491,1.036l.173.442q1.264-.495,2.509-1.044Zm-4.174,1.668q-1.271.457-2.557.859l.142.453q1.3-.406,2.576-.866Zm-4.281,1.373q-1.3.367-2.611.679l.11.462q1.321-.315,2.63-.684Zm-4.366,1.071q-1.321.275-2.652.5l.077.468q1.34-.222,2.671-.5Zm-4.43.764q-1.336.183-2.68.309l.045.472q1.353-.127,2.7-.311Zm-4.472.453q-1.345.089-2.695.121l.011.474q1.359-.033,2.715-.122Zm-4.493.14q-1.348,0-2.7-.067l-.022.474q1.359.062,2.717.067Zm-4.492-.174q-1.344-.1-2.686-.255l-.055.471q1.351.157,2.705.257Zm-4.469-.487q-.667-.1-1.333-.207l-.078.468q.671.111,1.343.208Zm-1.333-.207q-.666-.111-1.328-.235l-.088.466q.668.125,1.338.237Zm-3.091-.591q-1.32-.286-2.624-.626l-.12.459q1.313.343,2.643.63Zm-4.357-1.1q-1.3-.377-2.574-.807l-.151.45q1.287.433,2.593.813Zm-4.27-1.405q-1.266-.467-2.511-.985l-.182.438q1.254.522,2.53.992Zm-4.162-1.7q-1.23-.554-2.436-1.158l-.213.424q1.215.608,2.454,1.166Zm-4.033-1.986q-1.188-.638-2.35-1.325l-.242.408q1.17.692,2.367,1.335Zm-3.884-2.262q-1.14-.719-2.252-1.486l-.269.39q1.119.772,2.268,1.5Zm-3.717-2.528q-1.087-.8-2.143-1.639l-.3.371q1.063.849,2.158,1.651ZM59.5,150.269q-1.029-.87-2.023-1.785l-.321.349q1,.922,2.038,1.8Zm-3.329-3.021q-.483-.47-.957-.951l-.338.333q.477.484.964.958Zm-.957-.951q-.474-.481-.937-.971l-.345.326q.466.494.944.978ZM53.063,144q-.9-1.007-1.755-2.049l-.367.3q.861,1.049,1.768,2.064Zm-2.876-3.455q-.827-1.067-1.608-2.166l-.387.275q.786,1.107,1.62,2.182ZM47.558,136.9q-.75-1.122-1.453-2.273l-.405.247q.707,1.159,1.463,2.29Zm-2.368-3.821q-.67-1.171-1.291-2.369l-.421.218q.625,1.207,1.3,2.386ZM43.1,129.1q-.587-1.214-1.122-2.453l-.435.188q.539,1.248,1.13,2.471Zm-1.813-4.114q-.5-1.252-.948-2.525l-.448.157q.451,1.283.955,2.544Zm-1.521-4.23q-.412-1.283-.77-2.585l-.457.126q.361,1.311.776,2.6Zm-1.223-4.326q-.321-1.308-.588-2.633l-.465.094q.268,1.334.592,2.652Zm-.918-4.4q-.114-.664-.215-1.332l-.469.071q.1.672.217,1.341Zm-.215-1.332q-.1-.668-.187-1.336l-.471.061q.087.673.189,1.346Zm-.393-3.122q-.136-1.344-.215-2.689l-.474.028q.08,1.355.217,2.709Zm-.3-4.485q-.042-1.35-.027-2.7l-.474,0q-.015,1.357.028,2.717Zm.017-4.5q.052-1.349.161-2.693l-.473-.038q-.109,1.354-.162,2.713Zm.331-4.483q.146-1.341.348-2.675l-.469-.071q-.2,1.343-.351,2.695Zm.643-4.449q.239-1.327.534-2.644l-.463-.1q-.3,1.326-.538,2.664Zm.951-4.394q.331-1.307.717-2.6l-.455-.136q-.389,1.3-.722,2.62Zm1.256-4.316q.421-1.28.9-2.544l-.444-.167q-.479,1.273-.9,2.563Zm1.554-4.218q.509-1.247,1.072-2.475l-.431-.2q-.567,1.237-1.08,2.493Zm1.844-4.1q.3-.6.609-1.2l-.421-.218q-.313.6-.613,1.213Zm.609-1.2q.311-.6.634-1.191l-.416-.227q-.325.6-.638,1.2Zm1.517-2.757q.68-1.167,1.406-2.3l-.4-.256q-.732,1.143-1.417,2.319Zm2.4-3.8q.759-1.117,1.563-2.2l-.381-.283q-.81,1.09-1.575,2.215Zm2.656-3.627q.835-1.06,1.713-2.084l-.36-.309q-.884,1.031-1.725,2.1Zm2.9-3.433q.907-1,1.854-1.959l-.338-.333q-.954.967-1.868,1.974Zm3.135-3.222q.974-.933,1.986-1.825L58.2,52.41q-1.02.9-2,1.839Zm3.352-3q1.036-.863,2.109-1.682l-.288-.377q-1.08.825-2.124,1.695Zm3.553-2.754q1.093-.788,2.221-1.531l-.261-.4q-1.135.748-2.237,1.542Zm3.736-2.5q1.145-.71,2.322-1.372l-.233-.413q-1.186.668-2.339,1.383Zm3.9-2.233q.6-.314,1.2-.616l-.212-.424q-.608.3-1.209.621Zm1.2-.616q.6-.3,1.213-.591l-.2-.429q-.613.291-1.222.6Zm2.848-1.339q1.236-.545,2.491-1.036l-.173-.442q-1.264.495-2.509,1.043Zm4.174-1.668q1.271-.457,2.557-.86l-.142-.453q-1.3.406-2.576.866Zm4.281-1.373q1.3-.367,2.611-.679l-.11-.462q-1.321.314-2.63.684Zm4.366-1.071q1.32-.275,2.652-.5l-.077-.468q-1.34.221-2.671.5Zm4.43-.764q1.336-.183,2.68-.309L95,36.5q-1.353.127-2.7.311Zm4.472-.453q1.345-.089,2.695-.122l-.011-.474q-1.359.033-2.715.122Zm4.493-.14q1.348.005,2.7.067l.022-.474q-1.359-.062-2.717-.067Zm4.492.174q1.344.1,2.686.255l.055-.471q-1.352-.157-2.705-.257Zm4.469.487q.667.1,1.333.207l.078-.468q-.671-.111-1.343-.208Zm1.333.207q.666.11,1.328.235l.087-.466q-.667-.125-1.338-.236Zm3.091.591q1.32.286,2.624.626l.12-.459q-1.313-.343-2.643-.631Zm4.357,1.1q1.3.377,2.574.808l.152-.45q-1.287-.433-2.593-.813Zm4.27,1.405q1.266.466,2.511.985l.182-.438q-1.254-.522-2.53-.992Zm4.161,1.7q1.23.553,2.436,1.158l.213-.424q-1.215-.609-2.454-1.166Zm4.033,1.986q1.188.638,2.35,1.325l.242-.408q-1.17-.692-2.367-1.335Zm3.884,2.262q1.141.719,2.252,1.486l.269-.39q-1.119-.772-2.268-1.5Zm3.717,2.528q1.087.8,2.142,1.639l.3-.371q-1.063-.849-2.158-1.651Zm3.532,2.781q1.029.87,2.023,1.785l.321-.349q-1-.921-2.038-1.8ZM146,54.932q.483.47.957.951l.338-.333q-.478-.485-.964-.958Zm.957.951q.474.481.937.971l.345-.326q-.466-.493-.943-.978Zm2.154,2.3q.9,1.007,1.755,2.049l.367-.3q-.861-1.049-1.768-2.064Zm2.877,3.454q.827,1.067,1.608,2.166l.387-.275q-.786-1.107-1.62-2.182Zm2.628,3.647q.75,1.122,1.452,2.273l.405-.247q-.707-1.16-1.463-2.29Zm2.368,3.821q.67,1.171,1.29,2.369l.421-.218q-.625-1.206-1.3-2.386Zm2.1,3.977q.587,1.214,1.122,2.453l.436-.188q-.539-1.247-1.131-2.471Zm1.813,4.114q.5,1.252.948,2.525l.447-.158q-.451-1.282-.955-2.544Zm1.521,4.23q.411,1.283.77,2.585l.457-.126q-.36-1.312-.775-2.6Zm1.223,4.326q.321,1.308.588,2.633l.465-.094q-.268-1.334-.592-2.652Zm.918,4.4q.115.664.215,1.332l.469-.071q-.1-.673-.217-1.341Zm-.019,1.367a.475.475,0,0,0,.938-.142Zm-17.408-35.8-.338.333h0Zm-35.463-18.4-.078.468Zm-39.5,5.961-.212-.424ZM43.708,71.324l-.421-.218h0Zm-6.538,39.412-.469.071Zm17.877,35.728.338-.333h0ZM130.014,158.9l-5.465-.384,2.4,4.925Zm-3.05.91q-1.231.543-2.482,1.032l.346.883q1.268-.5,2.518-1.047Zm-4.159,1.662q-1.266.455-2.548.856l.283.905q1.3-.407,2.585-.869Zm-4.265,1.368q-1.294.365-2.6.677l.219.923q1.326-.315,2.64-.687Zm-4.35,1.067q-1.316.275-2.642.494l.155.936q1.345-.222,2.681-.5Zm-4.414.761q-1.331.182-2.67.308l.089.945q1.358-.128,2.709-.313Zm-4.456.451q-1.34.089-2.685.121l.023.949q1.364-.033,2.724-.123Zm-4.477.139q-1.343,0-2.687-.066l-.043.948q1.364.063,2.727.068Zm-4.475-.173q-1.339-.1-2.676-.254l-.109.943q1.356.157,2.715.257Zm-4.453-.485q-.665-.1-1.328-.206l-.155.936q.673.112,1.348.209Zm-1.328-.206q-.663-.11-1.323-.234l-.175.932q.67.126,1.343.237Zm-3.08-.589q-1.315-.285-2.614-.624l-.239.918q1.318.344,2.653.633Zm-4.341-1.1q-1.292-.376-2.564-.8l-.3.9q1.292.435,2.6.817Zm-4.254-1.4q-1.262-.465-2.5-.981l-.365.876q1.258.524,2.539,1Zm-4.146-1.693q-1.226-.552-2.427-1.154l-.425.848q1.219.611,2.463,1.171Zm-4.018-1.979q-1.184-.635-2.341-1.32l-.483.817q1.174.695,2.376,1.34Zm-3.87-2.254q-1.137-.716-2.243-1.48l-.539.781q1.123.775,2.277,1.5Zm-3.7-2.519q-1.083-.793-2.135-1.633l-.592.741q1.066.852,2.166,1.657Zm-3.519-2.771q-1.025-.867-2.015-1.778l-.642.7q1,.925,2.045,1.8Zm-3.317-3.01q-.481-.468-.953-.947l-.676.666q.479.486.967.961Zm-.953-.947q-.472-.479-.933-.967l-.69.652q.468.5.947.981Zm-2.146-2.287q-.9-1-1.749-2.041l-.733.6q.864,1.053,1.774,2.071ZM50.374,140.4q-.824-1.063-1.6-2.158l-.774.549q.789,1.111,1.625,2.19Zm-2.619-3.634q-.748-1.118-1.447-2.264L45.5,135q.71,1.164,1.469,2.3ZM45.4,132.962q-.668-1.167-1.286-2.36l-.843.436q.627,1.211,1.3,2.395ZM43.309,129q-.584-1.21-1.118-2.444l-.871.376q.541,1.252,1.135,2.48ZM41.5,124.9q-.5-1.247-.945-2.516l-.9.315q.453,1.287.959,2.553Zm-1.516-4.214q-.41-1.279-.767-2.576l-.915.252q.362,1.316.778,2.614Zm-1.218-4.31q-.32-1.3-.585-2.623l-.93.187q.269,1.339.594,2.662Zm-.914-4.384q-.114-.662-.214-1.327l-.938.142q.1.675.218,1.346Zm-.214-1.327q-.1-.665-.187-1.331l-.941.122q.088.676.189,1.351Zm-.392-3.111q-.136-1.339-.215-2.679l-.947.056q.08,1.36.218,2.718Zm-.3-4.469q-.042-1.344-.027-2.687l-.949-.01q-.015,1.362.028,2.727Zm.017-4.479q.052-1.344.16-2.683l-.946-.076q-.11,1.359-.163,2.723ZM37.3,94.14q.146-1.336.347-2.665l-.938-.142q-.2,1.348-.352,2.7Zm.64-4.433q.238-1.323.532-2.635l-.926-.207q-.3,1.331-.54,2.673Zm.948-4.377q.33-1.3.715-2.591l-.909-.271q-.39,1.308-.725,2.629Zm1.251-4.3q.42-1.276.894-2.535l-.888-.334q-.481,1.277-.907,2.572Zm1.548-4.2q.508-1.243,1.068-2.466l-.863-.4q-.569,1.241-1.084,2.5Zm1.837-4.085q.3-.6.606-1.2l-.842-.437q-.314.606-.615,1.217Zm.606-1.2q.31-.6.631-1.187l-.833-.455q-.326.6-.641,1.2Zm1.511-2.747q.677-1.163,1.4-2.294l-.8-.511q-.734,1.147-1.422,2.328Zm2.388-3.789q.756-1.112,1.558-2.19l-.762-.566q-.813,1.093-1.581,2.223Zm2.646-3.613q.832-1.056,1.706-2.076l-.72-.618q-.887,1.035-1.732,2.107Zm2.892-3.42q.9-1,1.847-1.952l-.675-.666q-.958.971-1.875,1.981Zm3.123-3.21q.97-.929,1.979-1.819l-.627-.712q-1.024.9-2.008,1.846Zm3.34-2.984q1.032-.859,2.1-1.676l-.576-.754q-1.084.828-2.132,1.7Zm3.54-2.744q1.089-.785,2.213-1.525l-.522-.792q-1.14.751-2.245,1.548Zm3.722-2.49q1.141-.707,2.314-1.367l-.465-.827q-1.19.67-2.348,1.388Zm3.888-2.225q.594-.313,1.2-.614l-.425-.849q-.61.305-1.213.623Zm1.2-.614q.6-.3,1.208-.589l-.407-.857q-.616.292-1.226.6Zm2.838-1.334q1.231-.543,2.482-1.032l-.346-.884q-1.269.5-2.518,1.047Zm4.159-1.662q1.266-.455,2.547-.856l-.283-.906q-1.3.407-2.585.869Zm4.265-1.368q1.294-.366,2.6-.677l-.22-.923q-1.326.315-2.64.687Zm4.35-1.067Q89.3,38,90.629,37.781l-.155-.936q-1.345.222-2.681.5Zm4.414-.761q1.331-.182,2.67-.308l-.089-.945q-1.358.128-2.709.313Zm4.456-.451q1.34-.089,2.685-.121l-.023-.949q-1.364.033-2.725.123Zm4.477-.139q1.343.005,2.687.067l.043-.948q-1.364-.062-2.727-.068Zm4.475.173q1.339.1,2.676.254l.109-.943q-1.356-.157-2.715-.258Zm4.453.485q.664.1,1.328.206l.155-.936q-.673-.112-1.348-.209Zm1.328.206q.664.11,1.323.234l.175-.933q-.67-.126-1.343-.237Zm3.08.589q1.315.285,2.614.624l.24-.918q-1.318-.344-2.653-.633Zm4.341,1.1q1.292.376,2.565.8l.3-.9q-1.291-.435-2.6-.816Zm4.254,1.4q1.262.465,2.5.981l.365-.876q-1.259-.524-2.539-1Zm4.146,1.694q1.226.551,2.427,1.154l.425-.848q-1.219-.611-2.463-1.171Zm4.018,1.979q1.184.635,2.341,1.32l.483-.817q-1.174-.695-2.376-1.34ZM135.3,46.8q1.137.716,2.243,1.48l.539-.781q-1.123-.775-2.276-1.5Zm3.7,2.519q1.083.793,2.134,1.633l.592-.741q-1.067-.852-2.166-1.657Zm3.519,2.771q1.025.867,2.015,1.778l.643-.7q-1.005-.924-2.045-1.8Zm3.317,3.01q.481.468.953.947l.676-.666q-.479-.486-.967-.961Zm.953.947q.472.479.933.967l.69-.652q-.468-.5-.947-.981Zm2.146,2.287q.9,1,1.748,2.041l.733-.6q-.864-1.053-1.774-2.071Zm2.866,3.442q.824,1.063,1.6,2.158l.774-.549q-.789-1.111-1.625-2.19Zm2.619,3.633q.748,1.118,1.447,2.265l.81-.494q-.71-1.164-1.469-2.3Zm2.359,3.807q.668,1.167,1.286,2.36l.843-.436q-.627-1.211-1.3-2.395Zm2.088,3.962q.584,1.21,1.118,2.444l.871-.376q-.541-1.252-1.134-2.48Zm1.806,4.1q.5,1.248.945,2.516l.9-.315q-.453-1.287-.959-2.553Zm1.516,4.215q.41,1.278.767,2.576l.915-.252q-.362-1.316-.779-2.614Zm1.218,4.31q.32,1.3.585,2.623l.93-.187q-.27-1.339-.594-2.662Zm.914,4.385q.114.661.214,1.327l.938-.142q-.1-.675-.218-1.346Z" transform="translate(546.341 232.284)" fill="#02a3ec"/>
      <path id="Path_82041" data-name="Path 82041" d="M560.153,414.511a25.877,25.877,0,1,0,26.411-25.328A25.908,25.908,0,0,0,560.153,414.511Zm39.5-7.924a15.789,15.789,0,1,1-27.341,15.8,15.976,15.976,0,0,1,5.441-21.178A15.79,15.79,0,0,1,599.655,406.586Z" transform="translate(143.054 -38.215)" fill="#4dc7ff"/>
      <path id="Path_82042" data-name="Path 82042" d="M572.358,363.885a42.381,42.381,0,0,0-.091-9.077l-7.039-1.683a37.676,37.676,0,0,0-1.551-5.491l5.16-5.091a41.772,41.772,0,0,0-4.625-7.815l-6.945,2.076a35.074,35.074,0,0,0-4.072-4l1.922-6.981a42.28,42.28,0,0,0-7.911-4.456l-4.987,5.274a35.611,35.611,0,0,0-5.508-1.421l-1.844-7.026a41.507,41.507,0,0,0-9.06.112l-1.7,7.037a34.469,34.469,0,0,0-5.477,1.549l-5.1-5.155a40,40,0,0,0-4.036,2.092,42.471,42.471,0,0,0-3.777,2.516l2.067,6.956a35.932,35.932,0,0,0-4,4.069l-6.981-1.917a41.839,41.839,0,0,0-4.454,7.9l5.269,4.992a35.911,35.911,0,0,0-1.41,5.511l-7.017,1.841a41.889,41.889,0,0,0,.094,9.07l7.051,1.676a36.272,36.272,0,0,0,1.535,5.5l-5.155,5.088a38.894,38.894,0,0,0,2.094,4.025,41.526,41.526,0,0,0,2.523,3.783l6.954-2.069a35.708,35.708,0,0,0,4.07,3.991l-1.913,6.99a41.519,41.519,0,0,0,7.891,4.443l5-5.265a33.87,33.87,0,0,0,5.513,1.415l1.837,7.024a42.612,42.612,0,0,0,9.07-.1l1.676-7.046a34.76,34.76,0,0,0,5.488-1.546l5.113,5.158a39.761,39.761,0,0,0,4.02-2.092,41.568,41.568,0,0,0,3.774-2.527l-2.067-6.945a35.722,35.722,0,0,0,3.993-4.069l6.985,1.915a41.293,41.293,0,0,0,4.445-7.9l-5.27-5a35.067,35.067,0,0,0,1.419-5.5Zm-42.148,22.89a27,27,0,1,1,27.56-26.425A27.025,27.025,0,0,1,530.21,386.775Z" transform="translate(198.303 17.056)" fill="#a2e2ff"/>
      <path id="Path_82043" data-name="Path 82043" d="M555.152,410.6a27,27,0,1,0,27.556-26.425A27.025,27.025,0,0,0,555.152,410.6Zm52.859,1.108a25.877,25.877,0,1,1-25.332-26.414A25.9,25.9,0,0,1,608.011,411.705Z" transform="translate(146.938 -34.324)" fill="#0073a8"/>
      <path id="Path_82045" data-name="Path 82045" d="M466.329,345.932a.219.219,0,1,0-.432.072Zm14,27.3-.153.156h0Zm27.526,13.7.032-.217h0Zm30.323-5.094-.1-.194h0ZM559.714,359.9l-.2-.1h0Zm4.525-30.413.216-.036ZM522.5,288.517l-.032.217h0Zm-30.323,5.094,2.525.143-1.139-2.258Zm2.9-1.157q1.221-.542,2.466-1.016l-.156-.409q-1.256.478-2.488,1.025Zm4.139-1.619q1.264-.43,2.547-.791l-.119-.422q-1.294.364-2.57.8Zm4.268-1.241q1.3-.315,2.608-.56l-.08-.431q-1.322.247-2.631.564Zm4.362-.854q1.319-.2,2.648-.323l-.041-.436q-1.34.127-2.671.326Zm4.421-.46q1.331-.078,2.666-.085l0-.438q-1.347.007-2.689.086Zm4.444-.062q1.331.041,2.663.155l.037-.436q-1.343-.114-2.686-.156Zm4.431.337q.662.081,1.322.179l.064-.433q-.666-.1-1.334-.18Zm1.322.179q.66.1,1.317.214l.076-.431q-.662-.117-1.328-.216Zm3.062.554q1.306.279,2.592.627l.115-.423q-1.3-.351-2.615-.633Zm4.3,1.123q1.275.395,2.526.857l.152-.411q-1.261-.466-2.548-.865Zm4.182,1.5q1.234.507,2.439,1.08l.188-.4q-1.215-.578-2.46-1.09Zm4.031,1.873q1.183.616,2.332,1.295l.223-.377q-1.159-.685-2.352-1.306Zm3.847,2.227q1.122.719,2.207,1.5l.256-.356q-1.093-.786-2.226-1.511Zm3.631,2.562q1.053.816,2.063,1.69l.287-.331q-1.02-.882-2.082-1.705Zm3.387,2.877q.488.454.965.921l.307-.313q-.481-.472-.973-.93Zm.965.921q.476.468.939.947l.315-.3q-.467-.484-.948-.955Zm2.151,2.248q.893.994,1.729,2.031l.341-.275q-.843-1.046-1.744-2.049Zm2.819,3.436q.8,1.069,1.539,2.178l.365-.243q-.746-1.118-1.553-2.2Zm2.5,3.675q.7,1.136,1.338,2.307l.385-.209q-.643-1.182-1.35-2.328Zm2.16,3.884q.6,1.193,1.126,2.418l.4-.174q-.535-1.235-1.136-2.439Zm1.8,4.062q.486,1.241.9,2.509l.416-.137q-.422-1.279-.912-2.531Zm1.432,4.207q.372,1.279.676,2.58l.426-.1q-.306-1.312-.682-2.6Zm1.049,4.319q.128.654.238,1.312l.432-.073q-.112-.664-.241-1.324Zm.238,1.312q.111.658.2,1.318l.434-.061q-.093-.666-.2-1.33Zm.419,3.083q.138,1.329.2,2.659l.437-.022q-.067-1.342-.206-2.683Zm.261,4.437q.018,1.335-.035,2.667l.438.017q.054-1.343.035-2.691Zm-.138,4.442q-.1,1.331-.274,2.653l.434.057q.174-1.334.276-2.677Zm-.535,4.412q-.22,1.315-.511,2.618l.428.1q.293-1.314.515-2.641Zm-.929,4.346q-.337,1.29-.743,2.562l.417.133q.41-1.283.75-2.584Zm-1.315,4.245q-.451,1.253-.97,2.485l.4.17q.524-1.242.978-2.507ZM560.1,358.6q-.281.6-.578,1.2l.392.2q.3-.6.583-1.212Zm-.578,1.2q-.3.6-.611,1.186l.387.206q.316-.593.616-1.2Zm-1.474,2.741q-.669,1.156-1.4,2.271l.367.24q.735-1.125,1.41-2.292Zm-2.4,3.743q-.77,1.091-1.6,2.137l.344.272q.833-1.055,1.61-2.156Zm-2.723,3.513q-.864,1.017-1.781,1.985l.318.3q.925-.977,1.8-2ZM549.9,373.05q-.951.935-1.952,1.818l.29.329q1.009-.891,1.969-1.834Zm-3.306,2.97q-1.03.845-2.107,1.635l.259.353q1.086-.8,2.126-1.65Zm-3.559,2.662q-1.1.749-2.245,1.44l.226.375q1.153-.7,2.265-1.453Zm-3.783,2.332q-.582.324-1.174.633l.2.389q.6-.311,1.185-.638Zm-1.174.633q-.592.309-1.191.6l.192.394q.6-.295,1.2-.606Zm-2.8,1.351q-1.221.542-2.466,1.016l.156.409q1.256-.478,2.488-1.025Zm-4.139,1.619q-1.264.43-2.547.791l.118.422q1.294-.364,2.57-.8Zm-4.267,1.241q-1.3.315-2.608.56l.08.431q1.323-.247,2.631-.564Zm-4.362.854q-1.319.2-2.648.323l.042.436q1.34-.127,2.671-.326Zm-4.421.46q-1.33.078-2.666.085l0,.438q1.347-.007,2.689-.086Zm-4.444.062q-1.331-.041-2.663-.155l-.037.436q1.343.114,2.686.156Zm-4.432-.337q-.661-.081-1.322-.179l-.065.433q.666.1,1.334.18Zm-1.322-.179q-.661-.1-1.317-.214l-.076.431q.662.117,1.328.216Zm-3.062-.554q-1.306-.279-2.592-.628l-.115.423q1.3.351,2.615.633Zm-4.3-1.123q-1.275-.395-2.526-.858l-.152.411q1.261.467,2.548.865Zm-4.182-1.5q-1.234-.507-2.439-1.08l-.188.4q1.215.578,2.46,1.09Zm-4.031-1.873q-1.183-.616-2.332-1.295l-.223.377q1.159.685,2.353,1.306Zm-3.846-2.227q-1.122-.719-2.207-1.5L486,378.3q1.094.786,2.226,1.511Zm-3.632-2.562q-1.053-.816-2.063-1.69l-.286.331q1.019.882,2.082,1.705ZM481.446,374q-.488-.454-.964-.921l-.307.313q.481.472.973.93Zm-.964-.921q-.477-.468-.939-.947l-.315.3q.467.484.948.955Zm-2.151-2.248q-.893-.994-1.728-2.031l-.341.275q.843,1.046,1.744,2.049Zm-2.819-3.436q-.8-1.069-1.54-2.178l-.364.243q.746,1.118,1.553,2.2Zm-2.5-3.675q-.7-1.136-1.338-2.307l-.385.209q.643,1.181,1.35,2.328Zm-2.16-3.884q-.6-1.193-1.126-2.418l-.4.174q.535,1.235,1.136,2.439Zm-1.8-4.062q-.486-1.241-.9-2.509l-.416.137q.423,1.279.913,2.531Zm-1.432-4.207q-.372-1.279-.676-2.58l-.427.1q.306,1.312.682,2.6Zm-1.049-4.319q-.128-.654-.239-1.312L465.9,346q.111.664.241,1.324Zm-.023-1.349a.438.438,0,1,0-.864.145Zm13.783,27.337-.307.313h0Zm27.526,13.7.065-.433h0Zm30.323-5.094-.2-.388h0ZM559.714,359.9l-.392-.2h0Zm4.525-30.413.432-.072ZM522.5,288.517l-.064.433h0Zm-30.323,5.094,5.05.285-2.278-4.516Zm2.993-.957q1.216-.539,2.455-1.012l-.312-.819q-1.261.48-2.5,1.03Zm4.121-1.612q1.258-.428,2.536-.787l-.237-.843q-1.3.366-2.581.8Zm4.249-1.236q1.291-.313,2.6-.557l-.161-.861q-1.328.248-2.642.567Zm4.342-.85q1.313-.2,2.636-.322l-.083-.872q-1.346.128-2.683.328Zm4.4-.458q1.325-.078,2.654-.085l0-.876q-1.353.007-2.7.086Zm4.424-.061q1.325.041,2.651.154l.074-.873q-1.349-.115-2.7-.157Zm4.412.336q.658.08,1.316.178l.129-.867q-.669-.1-1.339-.181Zm1.316.178q.657.1,1.311.213l.152-.863q-.665-.117-1.334-.217Zm3.048.552q1.3.278,2.581.625l.229-.846q-1.3-.353-2.627-.636Zm4.281,1.118q1.27.393,2.515.854l.3-.822q-1.266-.469-2.559-.869Zm4.164,1.5q1.229.5,2.428,1.075l.376-.791q-1.22-.58-2.471-1.095Zm4.013,1.864q1.177.613,2.322,1.289l.446-.754q-1.164-.688-2.363-1.312Zm3.829,2.217q1.117.716,2.2,1.492l.511-.711q-1.1-.79-2.236-1.518Zm3.616,2.551q1.048.812,2.054,1.683l.573-.663q-1.024-.886-2.091-1.713Zm3.372,2.865q.486.452.96.917l.614-.625q-.483-.474-.977-.934Zm.96.917q.474.466.935.943l.63-.608q-.469-.486-.952-.96Zm2.142,2.238q.889.989,1.721,2.022l.682-.55q-.846-1.051-1.751-2.058Zm2.806,3.421q.8,1.064,1.532,2.169l.729-.486q-.749-1.123-1.56-2.207Zm2.488,3.659q.7,1.131,1.332,2.3l.769-.419q-.646-1.187-1.356-2.338Zm2.15,3.867q.593,1.188,1.121,2.407l.8-.348q-.538-1.241-1.141-2.45Zm1.8,4.044q.483,1.236.9,2.5l.832-.275q-.424-1.285-.917-2.542Zm1.426,4.189q.37,1.273.673,2.569l.853-.2q-.307-1.318-.685-2.614Zm1.044,4.3q.127.651.238,1.307l.864-.145q-.112-.667-.242-1.33Zm.238,1.307q.11.655.2,1.312l.868-.122q-.094-.669-.206-1.336Zm.417,3.07q.138,1.323.2,2.648l.875-.044q-.067-1.348-.207-2.695Zm.26,4.417q.018,1.329-.035,2.655l.875.035q.054-1.349.035-2.7Zm-.137,4.422q-.1,1.325-.273,2.641l.869.113q.175-1.34.277-2.688Zm-.533,4.393q-.219,1.309-.508,2.606l.855.191q.294-1.32.517-2.653Zm-.925,4.327q-.335,1.284-.74,2.55l.834.267q.412-1.289.753-2.6Zm-1.309,4.227q-.449,1.248-.965,2.474l.807.34q.526-1.247.982-2.518ZM559.9,358.5q-.28.6-.576,1.2l.784.391q.3-.606.586-1.218Zm-.576,1.2q-.3.6-.608,1.181l.773.411q.317-.6.618-1.2Zm-1.467,2.729q-.666,1.151-1.391,2.262l.733.479q.738-1.13,1.416-2.3Zm-2.386,3.726q-.766,1.086-1.589,2.128l.688.543q.837-1.06,1.617-2.165Zm-2.711,3.5q-.86,1.012-1.773,1.977l.636.6q.929-.981,1.8-2.012Zm-3.013,3.24q-.946.931-1.943,1.81l.58.657q1.014-.895,1.978-1.842Zm-3.291,2.957q-1.026.841-2.1,1.628l.518.706q1.09-.8,2.135-1.657Zm-3.543,2.65q-1.1.746-2.235,1.434l.453.75q1.159-.7,2.275-1.459Zm-3.767,2.322q-.58.323-1.169.63l.405.777q.6-.313,1.19-.641Zm-1.169.63q-.589.307-1.186.6l.384.788q.607-.3,1.207-.609Zm-2.791,1.345q-1.216.539-2.455,1.012l.312.819q1.261-.48,2.5-1.03Zm-4.121,1.612q-1.258.428-2.536.787l.237.843q1.3-.366,2.581-.8Zm-4.249,1.236q-1.291.313-2.6.557l.161.861q1.328-.248,2.642-.567Zm-4.342.85q-1.313.2-2.636.322l.083.872q1.346-.128,2.682-.328Zm-4.4.458q-1.324.078-2.654.085l0,.876q1.353-.007,2.7-.086Zm-4.424.061q-1.326-.041-2.651-.154l-.074.873q1.349.115,2.7.157Zm-4.412-.336q-.659-.08-1.316-.178l-.129.867q.669.1,1.339.181Zm-1.316-.178q-.658-.1-1.311-.213l-.152.863q.665.117,1.334.217Zm-3.049-.552q-1.3-.278-2.581-.625l-.229.846q1.3.353,2.627.636Zm-4.281-1.118q-1.27-.393-2.515-.854l-.3.822q1.266.468,2.559.869Zm-4.164-1.5q-1.228-.5-2.428-1.075l-.376.791q1.22.58,2.471,1.095Zm-4.013-1.864q-1.178-.613-2.322-1.289l-.446.754q1.164.688,2.363,1.312Zm-3.83-2.217q-1.117-.716-2.2-1.492l-.512.711q1.1.79,2.236,1.518Zm-3.615-2.551q-1.048-.812-2.054-1.683l-.573.663q1.024.886,2.091,1.712Zm-3.372-2.865q-.486-.452-.96-.917l-.614.625q.483.474.977.934Zm-.96-.917q-.474-.466-.935-.943l-.63.608q.469.486.952.96Zm-2.142-2.238q-.889-.989-1.721-2.022l-.682.55q.847,1.051,1.752,2.058Zm-2.806-3.421q-.8-1.064-1.533-2.168l-.729.486q.749,1.123,1.56,2.207ZM473.2,363.6q-.7-1.131-1.332-2.3l-.769.419q.646,1.187,1.356,2.338Zm-2.151-3.867q-.592-1.188-1.121-2.407l-.8.348q.537,1.241,1.141,2.45Zm-1.8-4.044q-.483-1.236-.9-2.5l-.832.275q.424,1.285.916,2.542Zm-1.425-4.189q-.371-1.273-.673-2.569l-.853.2q.308,1.318.685,2.614Zm-1.044-4.3q-.128-.651-.238-1.307l-.864.145q.112.667.242,1.33Z" transform="matrix(1, 0.017, -0.017, 1, 222.406, 32.748)" fill="#02a3ec"/>
      <g id="Group_47622-2" data-name="Group 47622" transform="matrix(0.017, -1, 1, 0.017, 325.233, 989.246)">
        <path id="Path_82041-2" data-name="Path 82041" d="M560.15,399.741a10.79,10.79,0,1,0,11.013-10.561A10.8,10.8,0,0,0,560.15,399.741Zm16.472-3.3a6.584,6.584,0,1,1-11.4,6.587,6.662,6.662,0,0,1,2.269-8.831A6.584,6.584,0,0,1,576.622,396.437Z" transform="translate(121.29 -4.844)" fill="#4dc7ff"/>
        <path id="Path_82042-2" data-name="Path 82042" d="M523.759,337.133a17.67,17.67,0,0,0-.038-3.785l-2.935-.7a15.708,15.708,0,0,0-.647-2.289l2.151-2.123a17.417,17.417,0,0,0-1.929-3.259l-2.9.866a14.623,14.623,0,0,0-1.7-1.668l.8-2.911a17.631,17.631,0,0,0-3.3-1.858l-2.08,2.2a14.848,14.848,0,0,0-2.3-.593l-.769-2.93a17.307,17.307,0,0,0-3.778.047l-.708,2.934a14.37,14.37,0,0,0-2.284.646l-2.125-2.15a16.675,16.675,0,0,0-1.683.872,17.712,17.712,0,0,0-1.575,1.049l.862,2.9a14.981,14.981,0,0,0-1.666,1.7l-2.911-.8a17.447,17.447,0,0,0-1.857,3.293l2.2,2.082a14.972,14.972,0,0,0-.588,2.3l-2.926.768a17.467,17.467,0,0,0,.039,3.782l2.94.7a15.127,15.127,0,0,0,.64,2.292l-2.15,2.122a16.224,16.224,0,0,0,.873,1.678,17.323,17.323,0,0,0,1.052,1.578l2.9-.863a14.89,14.89,0,0,0,1.7,1.664l-.8,2.915a17.315,17.315,0,0,0,3.29,1.852l2.084-2.2a14.122,14.122,0,0,0,2.3.59l.766,2.929a17.769,17.769,0,0,0,3.782-.04l.7-2.938a14.5,14.5,0,0,0,2.288-.645l2.132,2.151a16.579,16.579,0,0,0,1.676-.872,17.324,17.324,0,0,0,1.574-1.054l-.862-2.9a14.89,14.89,0,0,0,1.665-1.7l2.913.8a17.216,17.216,0,0,0,1.854-3.294l-2.2-2.084a14.624,14.624,0,0,0,.592-2.294Zm-17.575,9.545a11.257,11.257,0,1,1,11.492-11.019A11.269,11.269,0,0,1,506.184,346.678Z" transform="translate(185.808 59.701)" fill="#a2e2ff"/>
        <path id="Path_82043-2" data-name="Path 82043" d="M555.148,395.187a11.257,11.257,0,1,0,11.49-11.019A11.269,11.269,0,0,0,555.148,395.187Zm22.041.462a10.79,10.79,0,1,1-10.563-11.014A10.8,10.8,0,0,1,577.19,395.649Z" transform="translate(125.826 -0.299)" fill="#0073a8"/>
        <path id="Path_82045-2" data-name="Path 82045" d="M.262,23.4a.088.088,0,1,0-.173.029Zm5.61,10.941-.061.063h0ZM16.9,39.835l.013-.087h0Zm12.152-2.041-.041-.078h0ZM37.688,29l-.079-.039h0ZM39.5,16.811l.087-.014ZM22.773.393,22.76.479h0ZM10.621,2.434l1.012.057-.456-.9Zm1.164-.464q.489-.217.988-.407L12.711,1.4q-.5.192-1,.411Zm1.659-.649Q13.95,1.149,14.464,1L14.417.835q-.519.146-1.03.32Zm1.71-.5Q15.673.7,16.2.6L16.167.427q-.53.1-1.054.226ZM16.9.482Q17.43.4,17.963.352L17.946.177q-.537.051-1.07.131ZM18.673.3q.533-.031,1.068-.034V.088q-.54,0-1.078.034ZM20.454.273q.534.017,1.067.062L21.536.16Q21,.114,20.46.1ZM22.23.408q.265.032.53.072l.026-.174q-.267-.04-.535-.072Zm.53.072q.265.039.528.086l.031-.173q-.265-.047-.532-.087ZM23.987.7q.524.112,1.039.251l.046-.17Q24.552.643,24.024.53Zm1.723.45q.511.158,1.012.344l.061-.165q-.505-.187-1.021-.347Zm1.676.6q.495.2.977.433l.075-.159q-.487-.232-.986-.437ZM29,2.5q.474.247.935.519l.089-.151q-.464-.274-.943-.523Zm1.542.892q.45.288.884.6l.1-.143q-.438-.315-.892-.606ZM32,4.424q.422.327.827.677l.115-.133q-.409-.353-.834-.683Zm1.357,1.153q.2.182.387.369l.123-.125q-.193-.189-.39-.373Zm.387.369q.191.188.376.38l.126-.122q-.187-.194-.38-.383Zm.862.9q.358.4.693.814l.137-.11q-.338-.419-.7-.821Zm1.13,1.377q.32.428.617.873L36.5,9q-.3-.448-.622-.881Zm1,1.473q.281.455.536.925l.154-.084q-.258-.474-.541-.933Zm.866,1.557q.239.478.451.969l.161-.07q-.214-.5-.455-.978Zm.723,1.628q.195.5.363,1.006l.167-.055q-.169-.513-.366-1.015Zm.574,1.686q.149.513.271,1.034l.171-.04q-.123-.526-.273-1.043Zm.42,1.731q.051.262.1.526l.173-.029q-.045-.266-.1-.531Zm.1.526q.044.264.081.528l.174-.024q-.037-.267-.082-.533Zm.168,1.236q.055.533.082,1.066l.175-.009q-.027-.538-.083-1.075Zm.1,1.778q.007.535-.014,1.069l.175.007q.022-.538.014-1.078Zm-.055,1.78q-.041.533-.11,1.063l.174.023q.07-.535.111-1.073Zm-.215,1.768q-.088.527-.2,1.049l.171.038q.117-.527.206-1.058Zm-.372,1.742q-.135.517-.3,1.027l.167.053q.164-.514.3-1.036Zm-.527,1.7q-.181.5-.389,1l.162.068q.21-.5.392-1Zm-.677,1.647q-.113.242-.232.482l.157.078q.12-.242.234-.486Zm-.232.482q-.119.24-.245.475l.155.082q.127-.238.247-.48Zm-.591,1.1q-.268.463-.56.91l.147.1q.295-.451.565-.918Zm-.961,1.5q-.308.437-.64.856l.138.109q.334-.423.645-.864Zm-1.091,1.408q-.346.408-.714.8l.127.121q.371-.392.72-.8Zm-1.213,1.3q-.381.375-.782.729l.116.132q.4-.357.789-.735Zm-1.325,1.19q-.413.339-.844.655l.1.142q.435-.319.852-.661ZM31,36.528q-.441.3-.9.577l.091.15q.462-.279.908-.582Zm-1.516.935q-.233.13-.471.254l.081.156q.239-.125.475-.256Zm-.471.254q-.237.124-.477.241l.077.158q.242-.118.482-.243Zm-1.123.542q-.489.217-.988.407l.062.164q.5-.192,1-.411Zm-1.659.649q-.506.172-1.021.317l.047.169q.519-.146,1.03-.32Zm-1.71.5q-.52.126-1.045.224l.032.173q.53-.1,1.054-.226Zm-1.748.342q-.529.079-1.061.13l.017.175q.537-.051,1.07-.131ZM21,39.93q-.533.031-1.068.034v.176q.54,0,1.078-.034Zm-1.781.025q-.534-.017-1.067-.062l-.015.175q.538.046,1.077.063Zm-1.776-.135q-.265-.032-.53-.072l-.026.174q.267.04.534.072Zm-.53-.072q-.265-.039-.528-.086l-.03.173q.265.047.532.087Zm-1.227-.222q-.523-.112-1.039-.251l-.046.169q.52.141,1.048.254Zm-1.723-.45q-.511-.158-1.012-.344l-.061.165q.505.187,1.021.347Zm-1.676-.6q-.495-.2-.977-.433l-.075.159q.487.232.986.437Zm-1.615-.75q-.474-.247-.935-.519l-.089.151q.464.274.943.523Zm-1.542-.892q-.45-.288-.884-.6l-.1.143q.438.315.892.606ZM7.678,35.8q-.422-.327-.827-.677l-.115.133q.408.353.834.683ZM6.32,34.65q-.2-.182-.386-.369l-.123.125q.193.189.39.373Zm-.386-.369q-.191-.187-.376-.38l-.126.122q.187.194.38.383Zm-.862-.9q-.358-.4-.693-.814l-.137.11q.338.419.7.821ZM3.942,32q-.32-.428-.617-.873l-.146.1q.3.448.622.881Zm-1-1.473q-.281-.455-.536-.925l-.154.084q.258.473.541.933Zm-.866-1.557Q1.836,28.5,1.623,28l-.161.07q.215.5.455.978Zm-.723-1.628q-.195-.5-.363-1.006L.823,26.4q.169.513.366,1.015ZM.778,25.659q-.149-.513-.271-1.034l-.171.04q.123.526.273,1.043Zm-.42-1.731q-.051-.262-.1-.526l-.173.029q.045.266.1.531Zm-.009-.541A.176.176,0,1,0,0,23.446ZM5.872,34.344l-.123.125h0ZM16.9,39.835l.026-.174h0Zm12.152-2.041-.081-.156h0ZM37.688,29l-.157-.078h0ZM39.5,16.811l.173-.029ZM22.773.393l-.026.174h0ZM10.621,2.434l2.024.114L11.732.738Zm1.2-.384q.487-.216.984-.405l-.125-.328q-.505.193-1,.413ZM13.472,1.4q.5-.172,1.016-.316l-.1-.338q-.521.147-1.034.321Zm1.7-.5q.517-.126,1.041-.223L16.151.341q-.532.1-1.059.227Zm1.74-.341Q17.441.49,17.971.439L17.938.09Q17.4.141,16.863.221ZM18.679.385q.531-.031,1.064-.034l0-.351Q19.2,0,18.658.035ZM20.452.36q.531.016,1.062.062l.03-.35Q21,.026,20.463.009ZM22.22.495q.264.032.527.071L22.8.219q-.268-.04-.537-.073Zm.527.071q.263.039.525.085l.061-.346Q23.067.259,22.8.219Zm1.222.221Q24.49.9,25,1.038L25.1.7Q24.573.558,24.042.444Zm1.716.448q.509.158,1.008.342l.122-.329Q26.307,1.06,25.789.9Zm1.669.6q.492.2.973.431l.151-.317q-.489-.233-.99-.439Zm1.608.747q.472.246.93.517l.179-.3q-.466-.276-.947-.526Zm1.535.888q.448.287.88.6l.2-.285q-.44-.317-.9-.608Zm1.449,1.022q.42.326.823.674L33,4.9q-.41-.355-.838-.686ZM33.3,5.641q.195.181.385.368l.246-.251q-.194-.19-.392-.374Zm.385.368q.19.187.375.378l.253-.244q-.188-.195-.381-.385Zm.858.9q.356.4.69.811L35.5,7.5q-.339-.421-.7-.825Zm1.125,1.371q.319.427.614.869l.292-.195q-.3-.45-.625-.885Zm1,1.466q.279.453.534.921L37.5,10.5q-.259-.476-.543-.937Zm.862,1.55q.237.476.449.965l.322-.14q-.215-.5-.457-.982Zm.719,1.621q.194.5.361,1l.333-.11q-.17-.515-.367-1.019Zm.571,1.679q.148.51.27,1.029l.342-.08q-.123-.528-.274-1.048Zm.418,1.723q.051.261.1.524l.346-.058q-.045-.267-.1-.533Zm.1.524q.044.263.081.526l.348-.049q-.038-.268-.083-.535Zm.167,1.23q.055.53.082,1.061l.351-.017q-.027-.54-.083-1.08Zm.1,1.77q.007.533-.014,1.064l.351.014q.022-.541.014-1.083Zm-.055,1.772q-.04.531-.109,1.059l.348.045q.07-.537.111-1.077Zm-.214,1.76q-.088.525-.2,1.045l.343.076q.118-.529.207-1.063Zm-.371,1.734q-.134.515-.3,1.022l.334.107q.165-.516.3-1.04ZM38.436,26.8q-.18.5-.387.991l.324.136q.211-.5.394-1.009Zm-.674,1.64q-.112.241-.231.48l.314.156q.121-.243.235-.488Zm-.231.48q-.119.239-.243.473l.31.165q.127-.239.248-.482Zm-.588,1.094q-.267.461-.558.906l.294.192q.3-.453.568-.922Zm-.956,1.493q-.307.435-.637.853l.276.218q.335-.425.648-.868Zm-1.086,1.4q-.345.406-.711.792l.255.241q.372-.393.723-.806Zm-1.208,1.3q-.379.373-.779.725l.232.263q.406-.359.793-.738Zm-1.319,1.185q-.411.337-.841.653l.208.283q.437-.321.856-.664Zm-1.42,1.062q-.44.3-.9.575l.182.3q.464-.281.912-.585Zm-1.51.93q-.232.129-.469.252l.162.311q.24-.125.477-.257Zm-.469.252q-.236.123-.475.24l.154.316q.243-.119.484-.244Zm-1.118.539q-.487.216-.984.405l.125.328q.505-.192,1-.413Zm-1.651.646q-.5.172-1.016.316l.1.338q.521-.147,1.034-.321Zm-1.7.5q-.517.126-1.041.223l.064.345q.532-.1,1.059-.227Zm-1.74.341q-.526.079-1.056.129l.033.35q.539-.051,1.075-.131ZM21,39.843q-.531.031-1.064.034l0,.351q.542,0,1.083-.035Zm-1.773.025q-.531-.016-1.062-.062l-.03.35q.54.046,1.081.063Zm-1.768-.134q-.264-.032-.527-.071l-.052.347q.268.04.537.072Zm-.527-.071q-.264-.039-.525-.085l-.061.346q.266.047.535.087Zm-1.222-.221q-.521-.111-1.034-.25l-.092.339q.522.141,1.053.255Zm-1.716-.448q-.509-.158-1.008-.342l-.122.329q.508.188,1.026.348Zm-1.669-.6q-.492-.2-.973-.431l-.151.317q.489.233.99.439Zm-1.608-.747q-.472-.246-.931-.517l-.179.3q.466.276.947.526Zm-1.535-.888q-.448-.287-.88-.6l-.205.285q.44.317.9.608ZM7.732,35.734q-.42-.326-.823-.674l-.23.266q.41.355.838.686ZM6.38,34.586q-.195-.181-.385-.368l-.246.251q.194.19.392.374ZM6,34.219q-.19-.187-.375-.378l-.253.244q.188.195.381.385Zm-.858-.9q-.356-.4-.69-.811l-.274.22q.339.421.7.825ZM4.012,31.95q-.319-.427-.614-.869l-.292.195q.3.45.625.885Zm-1-1.466q-.279-.453-.534-.921l-.308.168q.259.476.543.937Zm-.862-1.55q-.237-.476-.449-.965l-.322.14q.215.5.457.982Zm-.719-1.621q-.194-.5-.361-1l-.333.11q.17.515.367,1.019ZM.862,25.635q-.149-.51-.27-1.029l-.342.08q.123.528.274,1.048ZM.444,23.912q-.051-.261-.1-.524L0,23.446q.045.267.1.533Z" transform="matrix(1, 0.017, -0.017, 1, 673.011, 374.913)" fill="#02a3ec"/>
      </g>
    </g>
  </g>
</svg>
